<svg xmlns="http://www.w3.org/2000/svg" width="46.043" height="36.672" viewBox="0 0 46.043 36.672"><path d="M6.691,36.671A6.7,6.7,0,0,1,0,29.981V6.691A6.7,6.7,0,0,1,6.691,0H39.3a6.7,6.7,0,0,1,6.691,6.691V18.336a2.033,2.033,0,0,1-4.066,0V9.013L28.4,19.151a9.064,9.064,0,0,1-10.823,0L4.066,9.017V29.981a2.628,2.628,0,0,0,2.624,2.625H25.322a2.033,2.033,0,0,1,0,4.065ZM5.579,5.069,20.018,15.9a4.982,4.982,0,0,0,5.945,0L40.4,5.069a2.027,2.027,0,0,1,.651-.326A2.614,2.614,0,0,0,39.3,4.066H6.691a2.614,2.614,0,0,0-1.759.678A2.029,2.029,0,0,1,5.579,5.069Zm29.8,28.892V31.292H32.712a2.667,2.667,0,1,1,0-5.333h2.664V23.294a2.667,2.667,0,1,1,5.333,0v2.665h2.669a2.667,2.667,0,0,1,0,5.333H40.71v2.669a2.667,2.667,0,0,1-5.333,0Z" fill="#515867"/></svg>