<svg xmlns="http://www.w3.org/2000/svg" width="50" height="50" viewBox="0 0 50 50"><g transform="translate(-194 -559)"><circle cx="25" cy="25" r="25" transform="translate(194 559)" fill="#f8f8f8"/><path d="M25,1a24.007,24.007,0,0,0-9.342,46.114A24.006,24.006,0,0,0,34.342,2.886,23.849,23.849,0,0,0,25,1m0-1A25,25,0,1,1,0,25,25,25,0,0,1,25,0Z" transform="translate(194 559)" fill="#d6d7d8"/><g transform="translate(210.081 576.421)"><path d="M11.048,4.194a1,1,0,0,0-.7,1.7l2.18,2.18-2.18,2.18a1,1,0,1,0,1.408,1.408l2.883-2.883a1,1,0,0,0,0-1.408L11.751,4.486a.986.986,0,0,0-.7-.293Z" transform="translate(2.993 3.207)" fill="#515867"/><path d="M4.5,5.686a1,1,0,0,0-1,1v8.2a2.99,2.99,0,0,0,2.987,2.986H18.772a1,1,0,1,0,0-1.991H6.487a1,1,0,0,1-1-1v-8.2a1,1,0,0,0-1-1Z" transform="translate(-3.5 -5.686)" fill="#515867"/></g></g></svg>