<svg xmlns="http://www.w3.org/2000/svg" width="50" height="50" viewBox="0 0 50 50">
  <g id="Group_69785" data-name="Group 69785" transform="translate(-1730 -31)">
    <g id="Ellipse_9301" data-name="Ellipse 9301" transform="translate(1730 31)" fill="#fff" stroke="#d6d7d8" stroke-width="0.5" opacity="0.9">
      <circle cx="25" cy="25" r="25" stroke="none"/>
      <circle cx="25" cy="25" r="24.75" fill="none"/>
    </g>
    <path id="chat" d="M19.67,18.322a6.647,6.647,0,0,0-2.6-10.037A7.6,7.6,0,1,0,3.595,14.258l-1.32,1.31a.955.955,0,0,0,.674,1.624h5.4a6.647,6.647,0,0,0,5.992,3.8h5.7a.955.955,0,0,0,.674-1.624ZM7.7,14.343a6.3,6.3,0,0,0,.076.95H5.237l.332-.323a.95.95,0,0,0,0-1.348A5.631,5.631,0,0,1,3.9,9.6,5.7,5.7,0,0,1,9.6,3.9a5.64,5.64,0,0,1,5.365,3.8h-.617A6.647,6.647,0,0,0,7.7,14.343ZM17.7,19.091l.047.047H14.343A4.748,4.748,0,1,1,17.7,17.752a.929.929,0,0,0,0,1.339Z" transform="translate(1743.512 44.51)" fill="#515867" opacity="0.9"/>
  </g>
</svg>
