<svg xmlns="http://www.w3.org/2000/svg" width="15.229" height="15.227" viewBox="0 0 15.229 15.227">
  <path id="group" d="M4.417.264A2.781,2.781,0,0,0,1.648,3.034a2.734,2.734,0,0,0,.621,1.718,3.462,3.462,0,0,0-2,3.125.692.692,0,0,0,1.384,0A2.059,2.059,0,0,1,3.728,5.8H5.112A2.053,2.053,0,0,1,7.185,7.876a.693.693,0,1,0,1.385,0A2.053,2.053,0,0,1,10.644,5.8h1.384a2.059,2.059,0,0,1,2.08,2.075.692.692,0,1,0,1.384,0,3.462,3.462,0,0,0-2-3.125,2.733,2.733,0,0,0,.621-1.718,2.769,2.769,0,1,0-5.538,0A2.732,2.732,0,0,0,9.189,4.75a3.481,3.481,0,0,0-1.31,1.073A3.477,3.477,0,0,0,6.567,4.75a2.735,2.735,0,0,0,.618-1.717A2.78,2.78,0,0,0,4.417.264Zm0,1.384A1.385,1.385,0,1,1,3.033,3.034,1.375,1.375,0,0,1,4.417,1.648Zm6.922,0A1.385,1.385,0,1,1,9.955,3.034a1.376,1.376,0,0,1,1.384-1.385ZM4.417,7.186A2.781,2.781,0,0,0,1.648,9.955a2.734,2.734,0,0,0,.621,1.719,3.46,3.46,0,0,0-2,3.124.692.692,0,0,0,1.384,0,2.059,2.059,0,0,1,2.08-2.075H5.112A2.053,2.053,0,0,1,7.185,14.8a.693.693,0,1,0,1.385,0,2.053,2.053,0,0,1,2.073-2.075h1.384a2.059,2.059,0,0,1,2.08,2.075.692.692,0,1,0,1.384,0,3.46,3.46,0,0,0-2-3.124,2.737,2.737,0,0,0,.621-1.719,2.769,2.769,0,1,0-5.538,0,2.732,2.732,0,0,0,.618,1.718,3.473,3.473,0,0,0-1.31,1.073,3.474,3.474,0,0,0-1.311-1.073,2.736,2.736,0,0,0,.618-1.718A2.78,2.78,0,0,0,4.417,7.186Zm0,1.385A1.384,1.384,0,1,1,3.033,9.955,1.374,1.374,0,0,1,4.417,8.571Zm6.922,0A1.384,1.384,0,1,1,9.955,9.955a1.375,1.375,0,0,1,1.384-1.384Z" transform="translate(-0.264 -0.264)" fill="#15dd95" fill-rule="evenodd"/>
</svg>
