<svg xmlns="http://www.w3.org/2000/svg" width="30" height="30" viewBox="0 0 30 30"><g transform="translate(22529.992 15115.299)"><rect width="30" height="30" rx="5" transform="translate(-22529.992 -15115.299)" fill="#e3fff5"/><path d="M5,.5A4.505,4.505,0,0,0,.5,5V25A4.505,4.505,0,0,0,5,29.5H25A4.505,4.505,0,0,0,29.5,25V5A4.505,4.505,0,0,0,25,.5H5M5,0H25a5,5,0,0,1,5,5V25a5,5,0,0,1-5,5H5a5,5,0,0,1-5-5V5A5,5,0,0,1,5,0Z" transform="translate(-22529.992 -15115.299)" fill="#15dd95"/><path d="M1,9.164,3.065,7.1,7.2,11.229,14.425,4l2.065,2.065L7.2,15.36Z" transform="translate(-22523.738 -15109.979)" fill="#15dd95"/></g></svg>