<svg xmlns="http://www.w3.org/2000/svg" width="12.981" height="16.227" viewBox="0 0 12.981 16.227">
  <path id="document" d="M8.057,8.491h.811a.811.811,0,1,0,0-1.623H8.057a.811.811,0,1,0,0,1.623Zm0,1.623a.811.811,0,1,0,0,1.623h4.868a.811.811,0,1,0,0-1.623Zm8.925-2.483a1.063,1.063,0,0,0-.049-.219V7.339a.868.868,0,0,0-.154-.227h0L11.91,2.243h0a.868.868,0,0,0-.227-.154.26.26,0,0,0-.073,0A.714.714,0,0,0,11.343,2H6.434A2.434,2.434,0,0,0,4,4.434V15.793a2.434,2.434,0,0,0,2.434,2.434h8.113a2.434,2.434,0,0,0,2.434-2.434V7.631ZM12.113,4.767l2.1,2.1h-1.29a.811.811,0,0,1-.811-.811Zm3.245,11.026a.811.811,0,0,1-.811.811H6.434a.811.811,0,0,1-.811-.811V4.434a.811.811,0,0,1,.811-.811h4.057V6.057a2.434,2.434,0,0,0,2.434,2.434h2.434Zm-2.434-2.434H8.057a.811.811,0,1,0,0,1.623h4.868a.811.811,0,1,0,0-1.623Z" transform="translate(-4 -2)" fill="#fff"/>
</svg>
