<svg xmlns="http://www.w3.org/2000/svg" width="12.982" height="16.691" viewBox="0 0 12.982 16.691"><path d="M3.677,15.837H14.8a.927.927,0,0,1,.126,1.846l-.126.008H3.677a.927.927,0,0,1-.126-1.846l.126-.008h0ZM9.115,1.008,9.241,1a.927.927,0,0,1,.919.8l.008.126v9.505l2.788-2.787a.928.928,0,0,1,1.207-.09l.1.09a.928.928,0,0,1,.09,1.207l-.09.1L9.9,14.329a.928.928,0,0,1-1.207.09l-.1-.09L4.214,9.957a.927.927,0,0,1,1.207-1.4l.1.09,2.788,2.789V1.927a.927.927,0,0,1,.8-.919L9.241,1Z" transform="translate(-2.75 -1)" fill="#15dd95"/></svg>