<svg xmlns="http://www.w3.org/2000/svg" width="45.991" height="36.672" viewBox="0 0 45.991 36.672"><path d="M33.089,36.111a1.908,1.908,0,0,1-.465-1.976L34,30.029a1.911,1.911,0,0,1,.464-.755l5.48-5.48a2,2,0,0,1,1.375-.562,1.917,1.917,0,0,1,1.375.562l2.731,2.75v-.019a1.929,1.929,0,0,1,0,2.731l-5.481,5.48a1.888,1.888,0,0,1-.755.464l-4.1,1.375a2.318,2.318,0,0,1-.62.1A1.951,1.951,0,0,1,33.089,36.111Zm-26.4.561A6.7,6.7,0,0,1,0,29.981V6.691A6.7,6.7,0,0,1,6.691,0H39.3a6.7,6.7,0,0,1,6.691,6.691V18.336a2.033,2.033,0,0,1-4.066,0V9.013L28.4,19.151a9.064,9.064,0,0,1-10.823,0L4.066,9.017V29.981A2.628,2.628,0,0,0,6.69,32.606H25.322a2.033,2.033,0,0,1,0,4.065ZM4.932,4.744a2.036,2.036,0,0,1,.647.325L20.018,15.9a4.984,4.984,0,0,0,5.945,0L40.4,5.069a2.028,2.028,0,0,1,.651-.326,2.612,2.612,0,0,0-1.75-.677H6.687A2.614,2.614,0,0,0,4.932,4.744Z" fill="#515867"/></svg>