<svg xmlns="http://www.w3.org/2000/svg" width="35" height="35" viewBox="0 0 35 35">
  <g id="Group_69986" data-name="Group 69986" transform="translate(-1267 22802.957)">
    <rect id="Rectangle_24359" data-name="Rectangle 24359" width="35" height="35" rx="5" transform="translate(1267 -22802.957)" fill="#bfffe9"/>
    <g id="Layer_2" data-name="Layer 2" transform="translate(1273.483 -22796.57)">
      <path id="email" d="M18.178,4H4.855A2.855,2.855,0,0,0,2,6.855v9.517a2.855,2.855,0,0,0,2.855,2.855H18.178a2.855,2.855,0,0,0,2.855-2.855V6.855A2.855,2.855,0,0,0,18.178,4Zm-.638,1.9-6.024,4.52L5.493,5.9Zm.638,11.42H4.855a.952.952,0,0,1-.952-.952V7.093l7.042,5.282a.952.952,0,0,0,1.142,0L19.13,7.093v9.279A.952.952,0,0,1,18.178,17.323Z" fill="#15dd95"/>
    </g>
  </g>
</svg>
