<svg xmlns="http://www.w3.org/2000/svg" width="13.646" height="13.645" viewBox="0 0 13.646 13.645"><path d="M13843.518,2403.645a1.52,1.52,0,0,1-1.517-1.516v-9.1a1.52,1.52,0,0,1,1.517-1.516h.758v1.516h2.274v-1.516h4.548v1.516h2.274v-1.516h.758a1.52,1.52,0,0,1,1.517,1.516v9.1a1.52,1.52,0,0,1-1.517,1.516Zm0-1.516h10.612v-6.064h-10.612Zm2.306-1.481a1,1,0,0,1-1-1v-2a1,1,0,0,1,1-1h2a1,1,0,0,1,1,1v2a1,1,0,0,1-1,1Zm5.654-7.994V2390h1.516v2.653Zm-6.823,0V2390h1.517v2.653Z" transform="translate(-13842.001 -2390)" fill="#515867"/></svg>