<svg xmlns="http://www.w3.org/2000/svg" xmlns:xlink="http://www.w3.org/1999/xlink" width="51" height="51" viewBox="0 0 51 51">
  <defs>
    <filter id="Path_89476" x="0" y="0" width="51" height="51" filterUnits="userSpaceOnUse">
      <feOffset dy="1" input="SourceAlpha"/>
      <feGaussianBlur stdDeviation="1" result="blur"/>
      <feFlood flood-opacity="0.051"/>
      <feComposite operator="in" in2="blur"/>
      <feComposite in="SourceGraphic"/>
    </filter>
  </defs>
  <g id="Group_69868" data-name="Group 69868" transform="translate(-1617 -138)">
    <g transform="matrix(1, 0, 0, 1, 1617, 138)" filter="url(#Path_89476)">
      <g id="Path_89476-2" data-name="Path 89476" transform="translate(3 2)" fill="#f8f8f8">
        <path d="M 40 44.75 L 5 44.75 C 2.380840063095093 44.75 0.25 42.61915969848633 0.25 40 L 0.25 24.00486946105957 L 0.25 5 C 0.25 2.380840063095093 2.380840063095093 0.25 5 0.25 L 40 0.25 C 42.61915969848633 0.25 44.75 2.380840063095093 44.75 5 L 44.75 40 C 44.75 42.61915969848633 42.61915969848633 44.75 40 44.75 Z" stroke="none"/>
        <path d="M 5 0.5 C 2.518688201904297 0.5 0.5 2.518688201904297 0.5 5 L 0.5 40 C 0.5 42.48130798339844 2.518688201904297 44.5 5 44.5 L 40 44.5 C 42.48130798339844 44.5 44.5 42.48130798339844 44.5 40 L 44.5 5 C 44.5 2.518688201904297 42.48130798339844 0.5 40 0.5 L 5 0.5 M 5 0 L 40 0 C 42.76142120361328 0 45 2.238571166992188 45 5 L 45 40 C 45 42.76142120361328 42.76142120361328 45 40 45 L 5 45 C 2.238571166992188 45 0 42.76142120361328 0 40 C 0 40 0 32.7548713684082 0 24.00486946105957 C 0 15.25486946105957 0 5 0 5 C 0 2.238571166992188 2.238571166992188 0 5 0 Z" stroke="none" fill="#d6d7d8"/>
      </g>
    </g>
    <g id="filter" transform="translate(1627.5 178) rotate(-90)">
      <path id="Path_87647" data-name="Path 87647" d="M17,11H4A1,1,0,0,1,4,9H17a1,1,0,0,1,0,2Zm9,0H22a1,1,0,0,1,0-2h4a1,1,0,0,1,0,2Z" fill="#515867"/>
      <path id="Path_87648" data-name="Path 87648" d="M19.5,13.5A3.5,3.5,0,1,1,23,10,3.5,3.5,0,0,1,19.5,13.5Zm0-5A1.5,1.5,0,1,0,21,10,1.5,1.5,0,0,0,19.5,8.5ZM26,21H13a1,1,0,0,1,0-2H26a1,1,0,0,1,0,2ZM8,21H4a1,1,0,0,1,0-2H8a1,1,0,0,1,0,2Z" fill="#515867"/>
      <path id="Path_87649" data-name="Path 87649" d="M10.5,23.5A3.5,3.5,0,1,1,14,20a3.5,3.5,0,0,1-3.5,3.5Zm0-5A1.5,1.5,0,1,0,12,20,1.5,1.5,0,0,0,10.5,18.5Z" fill="#515867"/>
    </g>
  </g>
</svg>
