<svg xmlns="http://www.w3.org/2000/svg" width="30" height="30" viewBox="0 0 30 30">
  <g id="Group_73995" data-name="Group 73995" transform="translate(21755 10470)">
    <g id="Rectangle_28074" data-name="Rectangle 28074" transform="translate(-21755 -10470)" fill="#fff" stroke="#bfffe9" stroke-linecap="round" stroke-linejoin="round" stroke-width="1">
      <rect width="30" height="30" rx="5" stroke="none"/>
      <rect x="0.5" y="0.5" width="29" height="29" rx="4.5" fill="none"/>
    </g>
    <g id="album_2_" data-name="album (2)" transform="translate(-21748.25 -10463.25)">
      <path id="Path_89551" data-name="Path 89551" d="M6.046,6.25h4.407a21.556,21.556,0,0,1,2.577.088,2.591,2.591,0,0,1,1.658.736c.663.716.621,1.709.466,2.98a.488.488,0,1,1-.969-.118c.164-1.347.1-1.861-.213-2.2a1.645,1.645,0,0,0-1.07-.431,21.227,21.227,0,0,0-2.485-.079H6.083A21.226,21.226,0,0,0,3.6,7.306a1.645,1.645,0,0,0-1.07.431,1.406,1.406,0,0,0-.3,1.028,17.94,17.94,0,0,0,.245,2.329l.275,1.953a15.5,15.5,0,0,0,.316,1.814,1.434,1.434,0,0,0,.438.784,1.641,1.641,0,0,0,.9.314,18.287,18.287,0,0,0,1.954.057h3.783a18.287,18.287,0,0,0,1.954-.057,1.641,1.641,0,0,0,.9-.314,1.435,1.435,0,0,0,.438-.784,15.5,15.5,0,0,0,.316-1.814.488.488,0,1,1,.967.136l0,.034a15.89,15.89,0,0,1-.338,1.907,2.392,2.392,0,0,1-.755,1.274,2.593,2.593,0,0,1-1.411.532,18.677,18.677,0,0,1-2.038.064H6.327a18.677,18.677,0,0,1-2.038-.064A2.593,2.593,0,0,1,2.878,16.4a2.392,2.392,0,0,1-.755-1.274,15.888,15.888,0,0,1-.338-1.907L1.5,11.19A18.275,18.275,0,0,1,1.25,8.757a2.359,2.359,0,0,1,.561-1.684,2.591,2.591,0,0,1,1.658-.736A21.557,21.557,0,0,1,6.046,6.25Z" transform="translate(0 -1.744)" fill="#15dd95" fill-rule="evenodd"/>
      <path id="Path_89552" data-name="Path 89552" d="M3.684,5.95a1.877,1.877,0,0,1,1.848-2.2h7.113a1.877,1.877,0,0,1,1.848,2.2l-.962-.169a.9.9,0,0,0-.886-1.055H5.532a.9.9,0,0,0-.886,1.055Z" transform="translate(-0.839 -0.872)" fill="#15dd95" fill-rule="evenodd"/>
      <path id="Path_89553" data-name="Path 89553" d="M6.534,1.25h4.3a3.434,3.434,0,0,1,.349.01,1.791,1.791,0,0,1,1.6,1.784,3.428,3.428,0,0,1-.028.348l0,.027-.971-.106c.02-.182.025-.234.025-.271a.814.814,0,0,0-.727-.811c-.037,0-.089,0-.272,0H6.561c-.183,0-.235,0-.272,0a.814.814,0,0,0-.727.811c0,.037.005.089.025.271l-.971.106,0-.027a3.435,3.435,0,0,1-.028-.348,1.791,1.791,0,0,1,1.6-1.784A3.434,3.434,0,0,1,6.534,1.25Zm5.079,6.186a.488.488,0,1,0,.488.488A.488.488,0,0,0,11.613,7.436Zm-1.465.488a1.465,1.465,0,1,1,1.465,1.465A1.465,1.465,0,0,1,10.148,7.924ZM5.362,10.253a1.063,1.063,0,0,0-1.232-.031l-.862.624a.488.488,0,1,1-.573-.791l.862-.624a2.037,2.037,0,0,1,2.428.07l2.5,2.069a.864.864,0,0,0,.937.061l.174-.1a2.524,2.524,0,0,1,2.711.139l1.878,1.4a.488.488,0,0,1-.583.783l-1.878-1.4a1.548,1.548,0,0,0-1.637-.078l-.174.1a1.839,1.839,0,0,1-2.051-.153Z" transform="translate(-0.434)" fill="#15dd95" fill-rule="evenodd"/>
    </g>
  </g>
</svg>
