<svg xmlns="http://www.w3.org/2000/svg" width="165.027" height="38.676" viewBox="0 0 165.027 38.676"><g transform="translate(-109.171 -720.454)"><g transform="translate(152.756 730.983)"><path d="M70.2,224.476a7.968,7.968,0,0,1-2.2,5.891,8.553,8.553,0,0,1-6.485,2.615,9.219,9.219,0,0,1,0-18.439,9.074,9.074,0,0,1,3.625.739,7.26,7.26,0,0,1,2.762,1.971l-1.554,1.553a5.952,5.952,0,0,0-4.833-2.095,7.052,7.052,0,1,0,4.93,12.128,5.529,5.529,0,0,0,1.479-3.574H61.521v-2.122h8.559A7.576,7.576,0,0,1,70.2,224.476Z" transform="translate(-52.313 -214.543)" fill="#fff"/><path d="M63.663,219.22a6.34,6.34,0,0,1,8.927,0,6.917,6.917,0,0,1,0,9.2,6.344,6.344,0,0,1-8.927,0A6.909,6.909,0,0,1,63.663,219.22Zm1.689,7.764a3.813,3.813,0,0,0,5.391.157c.053-.051.106-.1.157-.157a4.876,4.876,0,0,0,0-6.34,3.819,3.819,0,0,0-5.4-.149c-.051.049-.1.1-.149.149A4.871,4.871,0,0,0,65.352,226.984Z" transform="translate(-43.084 -211.813)" fill="#fff"/><path d="M70.383,219.22a6.338,6.338,0,0,1,8.925,0,6.917,6.917,0,0,1,0,9.2,6.341,6.341,0,0,1-8.925,0A6.913,6.913,0,0,1,70.383,219.22Zm1.689,7.764a3.813,3.813,0,0,0,5.391.157c.055-.051.106-.1.157-.157a4.871,4.871,0,0,0,0-6.34,3.819,3.819,0,0,0-5.4-.149c-.051.049-.1.1-.149.149a4.869,4.869,0,0,0,0,6.34Z" transform="translate(-36.62 -211.813)" fill="#fff"/><path d="M81.3,235.579a5.485,5.485,0,0,1-3.5-1.071,6.321,6.321,0,0,1-1.948-2.456l2.073-.863a3.392,3.392,0,0,0,1.267,1.652,3.505,3.505,0,0,0,2.109.665,3.88,3.88,0,0,0,2.944-1.122,4.213,4.213,0,0,0,1.071-3.044V228.18h-.1a4.6,4.6,0,0,1-1.677,1.479,5.012,5.012,0,0,1-2.44.594,5.318,5.318,0,0,1-4.041-1.85,7.027,7.027,0,0,1,0-9.174,5.313,5.313,0,0,1,4.041-1.848,5.008,5.008,0,0,1,2.44.59,4.617,4.617,0,0,1,1.677,1.481h.1v-1.677h2.172v11.467a6.026,6.026,0,0,1-1.8,4.723A6.34,6.34,0,0,1,81.3,235.579Zm.173-7.4A3.623,3.623,0,0,0,84.2,227a5.07,5.07,0,0,0,0-6.359,3.7,3.7,0,0,0-5.232-.2q-.106.1-.206.206a5,5,0,0,0,0,6.34,3.613,3.613,0,0,0,2.707,1.195Z" transform="translate(-30.151 -211.814)" fill="#fff"/><path d="M84.907,232.4H82.633V214.743H84.9Z" transform="translate(-23.157 -214.351)" fill="#fff"/><path d="M90.634,230.256a5.827,5.827,0,0,1-4.449-1.822,6.465,6.465,0,0,1-1.712-4.61,6.656,6.656,0,0,1,1.665-4.539,5.4,5.4,0,0,1,4.253-1.9,5.576,5.576,0,0,1,4.3,1.75,6.643,6.643,0,0,1,1.614,4.684l-.024.42H86.739a4.088,4.088,0,0,0,1.218,2.884,3.693,3.693,0,0,0,2.627,1.061,3.255,3.255,0,0,0,3.305-2.071l2.02.84a5.427,5.427,0,0,1-1.948,2.354A5.672,5.672,0,0,1,90.634,230.256Zm3.256-7.889a3.216,3.216,0,0,0-.949-1.973,3.4,3.4,0,0,0-2.6-.936,3.245,3.245,0,0,0-2.181.792,4.012,4.012,0,0,0-1.269,2.12Z" transform="translate(-21.391 -211.816)" fill="#fff"/><path d="M96.164,232.4h-2.27V214.743H99.91a5.586,5.586,0,0,1,3.882,1.489,5.13,5.13,0,0,1,.271,7.25q-.129.141-.271.271a5.579,5.579,0,0,1-3.882,1.491H96.164Zm0-9.319h3.8a2.937,2.937,0,0,0,2.291-.961,3.035,3.035,0,0,0,0-4.241,2.937,2.937,0,0,0-2.291-.961h-3.8Z" transform="translate(-12.328 -214.351)" fill="#fff"/><path d="M102.8,232.4h-2.27V214.743h2.27Z" transform="translate(-5.946 -214.351)" fill="#fff"/><path d="M106.882,230.255a4.77,4.77,0,0,1-3.219-1.108,3.685,3.685,0,0,1-1.295-2.934,3.626,3.626,0,0,1,1.53-3.089A6.2,6.2,0,0,1,107.67,222a6.507,6.507,0,0,1,3.28.74v-.345a2.691,2.691,0,0,0-.912-2.132,3.276,3.276,0,0,0-2.242-.8,3.5,3.5,0,0,0-1.791.469,2.428,2.428,0,0,0-1.095,1.281l-2.073-.887a4.7,4.7,0,0,1,1.652-2.009,5.3,5.3,0,0,1,3.256-.926,5.593,5.593,0,0,1,3.847,1.355,4.849,4.849,0,0,1,1.526,3.823v7.289h-2.17v-1.675h-.1A4.447,4.447,0,0,1,106.882,230.255Zm.371-2.071a3.7,3.7,0,0,0,2.552-1.047,3.256,3.256,0,0,0,1.146-2.477,4.473,4.473,0,0,0-2.886-.792,3.743,3.743,0,0,0-2.489.712,2.155,2.155,0,0,0-.838,1.677,1.62,1.62,0,0,0,.765,1.406,3.059,3.059,0,0,0,1.752.52Z" transform="translate(-4.181 -211.812)" fill="#fff"/><path d="M112.577,234.99h-2.342l2.811-6.089-4.983-11.318h2.468l3.6,8.68h.047l3.5-8.68h2.466Z" transform="translate(1.297 -211.62)" fill="#fff"/></g><g transform="translate(109.171 720.454)"><path d="M30.1,228.351V211.437a2.546,2.546,0,0,1,.626-1.848c.19-.2.328-.257.559-.018q5.688,5.805,11.4,11.6,3.693,3.751,7.4,7.5c.237.237.261.369.008.62q-9.071,9.021-18.116,18.068a.623.623,0,0,1-.867.157.87.87,0,0,1-.11-.1,2.306,2.306,0,0,1-.894-1.956q0-5.011,0-10.02v-7.083Z" transform="translate(-30.094 -208.946)" fill="#fff"/><path d="M31.2,209.175a2.061,2.061,0,0,1,1.1.3q11.584,6.491,23.173,12.976c.353.2.347.31.073.579q-2.592,2.548-5.151,5.126c-.186.186-.3.292-.545.039q-9.216-9.4-18.449-18.78A2.386,2.386,0,0,1,31.2,209.175Z" transform="translate(-29.027 -209.175)" fill="#fff"/><path d="M32.084,237.136q8.407-8.5,16.8-17c.347-.353.51-.306.822.018q2.13,2.219,4.31,4.392c.255.255.275.359-.069.549Q43.154,231,32.372,236.926A3.383,3.383,0,0,0,32.084,237.136Z" transform="translate(-28.181 -198.876)" fill="#fff"/><path d="M55.241,221.783a1.769,1.769,0,0,1-.779,1.414,9.458,9.458,0,0,1-1.071.653c-2.175,1.2-4.357,2.393-6.526,3.605a.49.49,0,0,1-.689-.061l-.026-.033q-2.316-2.392-4.675-4.755c-.228-.229-.233-.355,0-.584q2.739-2.7,5.451-5.426a.434.434,0,0,1,.3-.182.441.441,0,0,1,.335.094c2.15,1.218,4.31,2.421,6.462,3.627A1.975,1.975,0,0,1,55.241,221.783Z" transform="translate(-19.315 -202.218)" fill="#fff"/></g></g></svg>