<svg xmlns="http://www.w3.org/2000/svg" width="13.605" height="13.605" viewBox="0 0 13.605 13.605">
  <path id="Subtraction_8" data-name="Subtraction 8" d="M12.194,14.106H2.412A1.914,1.914,0,0,1,.5,12.194V2.412A1.914,1.914,0,0,1,2.412.5h9.782a1.914,1.914,0,0,1,1.912,1.912v9.777a1.651,1.651,0,0,1-.062.373l-.007.025v.1c-.006.02-.012.04-.017.06l-.005.018a1.315,1.315,0,0,1-.048.144l0,.007a.539.539,0,0,1-.036.077l-.011.022a1.5,1.5,0,0,1-.109.213l-.059.085a1.708,1.708,0,0,1-.17.2l-.055.068a2.489,2.489,0,0,1-.236.2,1.181,1.181,0,0,1-.11.064l-.006,0-.021.012-.063.036-.077.041-.216.081h-.071l-.226.053A1.766,1.766,0,0,1,12.194,14.106ZM4.508,6.486a.888.888,0,0,0-.626.261L1.53,9.106v3.087a.884.884,0,0,0,.882.883h9.044L5.135,6.747A.889.889,0,0,0,4.508,6.486Zm5.59,1.4a.885.885,0,0,0-.626.26l-.745.745L12.733,12.9l.13-.146a1,1,0,0,0,.079-.1.868.868,0,0,0,.068-.121l0-.011a.887.887,0,0,0,.062-.319V10.5L10.724,8.145A.885.885,0,0,0,10.1,7.884Zm0-.988a1.962,1.962,0,0,1,1.353.539l1.626,1.608V2.412a.884.884,0,0,0-.883-.882H2.412a.883.883,0,0,0-.882.882V7.646L3.155,6.038a1.967,1.967,0,0,1,2.706,0L8,8.178l.743-.743A1.959,1.959,0,0,1,10.1,6.9ZM8.351,5.023a.864.864,0,1,1,.864-.864A.865.865,0,0,1,8.351,5.023Z" transform="translate(-0.5 -0.5)" fill="#15dd95"/>
</svg>
