<svg xmlns="http://www.w3.org/2000/svg" width="16.37" height="16.345" viewBox="0 0 16.37 16.345">
  <g id="message_2_" data-name="message (2)" transform="translate(-1.975 -1.978)">
    <g id="Group_75100" data-name="Group 75100" transform="translate(1.975 1.978)">
      <path id="Path_91249" data-name="Path 91249" d="M15.9,4.382a8.145,8.145,0,0,0-13.261,8.96.863.863,0,0,1,.073.521L2,17.309a.809.809,0,0,0,.815.977h.163l3.486-.7a1.026,1.026,0,0,1,.521.073A8.145,8.145,0,0,0,15.94,4.4Zm.676,6.809a6.516,6.516,0,0,1-8.96,4.952A2.655,2.655,0,0,0,6.6,15.933a2.794,2.794,0,0,0-.456.041l-2.3.464.464-2.3a2.517,2.517,0,0,0-.171-1.474,6.517,6.517,0,1,1,12.438-1.474Z" transform="translate(-1.975 -1.978)" fill="#15dd95"/>
    </g>
  </g>
</svg>
