<svg xmlns="http://www.w3.org/2000/svg" width="20.548" height="18" viewBox="0 0 20.548 18">
  <path id="Path_89485" data-name="Path 89485" d="M12.253.866h0a1.932,1.932,0,0,1,1.361.559l0,0a1.949,1.949,0,0,1,.53,1.765v0l-.657,3.17h4.076a3.236,3.236,0,0,1,2.974,4.5l-2.813,6.566a2.382,2.382,0,0,1-2.178,1.43H7.792a2.373,2.373,0,0,1-2.37-2.37V7.885a2.38,2.38,0,0,1,.689-1.672L10.884,1.44A1.909,1.909,0,0,1,12.253.866Zm.453,1.479a.653.653,0,0,0-.453-.186.626.626,0,0,0-.449.189l0,0L7.025,7.127a1.078,1.078,0,0,0-.311.758V16.5a1.079,1.079,0,0,0,1.077,1.077h7.757a1.089,1.089,0,0,0,.993-.653l2.809-6.557a1.943,1.943,0,0,0-1.785-2.7H11.9l.98-4.722A.65.65,0,0,0,12.706,2.346ZM2.62,7.23A2.373,2.373,0,0,1,4.991,9.6v6.9a2.37,2.37,0,0,1-4.741,0V9.6A2.373,2.373,0,0,1,2.62,7.23Zm0,10.343A1.079,1.079,0,0,0,3.7,16.5V9.6a1.077,1.077,0,1,0-2.155,0v6.9A1.079,1.079,0,0,0,2.62,17.573Z" transform="translate(-0.25 -0.866)" fill="#515867"/>
</svg>
