<svg xmlns="http://www.w3.org/2000/svg" width="20.747" height="18" viewBox="0 0 20.747 18">
  <path id="Path_89566" data-name="Path 89566" d="M12.255,2.028,7.11,7.173a1.855,1.855,0,0,0-.539,1.309v9.277a1.863,1.863,0,0,0,1.857,1.857h8.357A1.87,1.87,0,0,0,18.5,18.493l3.027-7.067a2.79,2.79,0,0,0-2.563-3.882H13.713l.882-4.253a1.4,1.4,0,0,0-.381-1.272,1.382,1.382,0,0,0-1.959.009Zm-9.4,17.588a1.863,1.863,0,0,0,1.857-1.857V10.33A1.857,1.857,0,0,0,1,10.33v7.429A1.863,1.863,0,0,0,2.857,19.616Z" transform="translate(-1 -1.616)" fill="#15dd95"/>
</svg>
