<svg id="Layer_2" data-name="Layer 2" xmlns="http://www.w3.org/2000/svg" width="18" height="16.938" viewBox="0 0 18 16.938">
  <path id="log-out" d="M7.176,6.117A1.059,1.059,0,0,0,7.176,4H5.059A1.059,1.059,0,0,0,4,5.059V19.88a1.059,1.059,0,0,0,1.059,1.059H7.176a1.059,1.059,0,0,0,0-2.117H6.117V6.117Zm14.631,5.738L18.821,7.621A1.059,1.059,0,1,0,17.1,8.849l1.821,2.562H10.352a1.059,1.059,0,1,0,0,2.117h8.469l-1.906,2.541a1.059,1.059,0,1,0,1.694,1.27L21.785,13.1a1.059,1.059,0,0,0,.021-1.249Z" transform="translate(-4 -4)" fill="#fd415e"/>
</svg>
