<svg xmlns="http://www.w3.org/2000/svg" width="30" height="30" viewBox="0 0 30 30">
  <g id="Group_69286" data-name="Group 69286" transform="translate(21754 18496)">
    <g id="Group_69284" data-name="Group 69284">
      <g id="Group_69285" data-name="Group 69285" transform="translate(1)">
        <g id="Rectangle_5" data-name="Rectangle 5" transform="translate(-21755 -18496)" fill="#fff" stroke="#e60050" stroke-linecap="round" stroke-linejoin="round" stroke-width="1">
          <rect width="30" height="30" rx="5" stroke="none"/>
          <rect x="0.5" y="0.5" width="29" height="29" rx="4.5" fill="none"/>
        </g>
      </g>
    </g>
    <g id="Layer_2" data-name="Layer 2" transform="translate(-21747 -18488)">
      <path id="Layer_1" data-name="Layer 1" d="M5.167.876a.631.631,0,0,1,.631.631V5.167a.626.626,0,0,1-.631.631H1.524a.631.631,0,0,1-.648-.631V1.524A.635.635,0,0,1,1.524.876H5.167m0-.876H1.524A1.524,1.524,0,0,0,0,1.524V5.167A1.528,1.528,0,0,0,1.524,6.7H5.167A1.533,1.533,0,0,0,6.7,5.167V1.524A1.528,1.528,0,0,0,5.167,0Zm8.027.876a.631.631,0,0,1,.631.631V5.167a.626.626,0,0,1-.631.631H9.551a.631.631,0,0,1-.631-.631V1.524A.635.635,0,0,1,9.551.876h3.643m0-.876H9.551A1.524,1.524,0,0,0,8.027,1.524V5.167A1.528,1.528,0,0,0,9.551,6.7h3.643a1.533,1.533,0,0,0,1.528-1.528V1.524A1.528,1.528,0,0,0,13.194,0ZM5.167,8.934a.631.631,0,0,1,.631.631v3.643a.626.626,0,0,1-.631.631H1.524a.631.631,0,0,1-.648-.631V9.564a.635.635,0,0,1,.648-.631H5.167m0-.876H1.524A1.524,1.524,0,0,0,0,9.564v3.643a1.528,1.528,0,0,0,1.524,1.528H5.167A1.533,1.533,0,0,0,6.7,13.208V9.564A1.528,1.528,0,0,0,5.167,8.04Zm9.4,2.755-.49-.109a3.175,3.175,0,0,0-.158-.381l.272-.438a.193.193,0,0,0-.026-.241L13.4,8.881a.193.193,0,0,0-.241-.026l-.438.272a3.175,3.175,0,0,0-.381-.158L12.262,8.5a.193.193,0,0,0-.184-.153h-1.09A.193.193,0,0,0,10.8,8.5l-.105.49a3.236,3.236,0,0,0-.385.158l-.438-.272A.193.193,0,0,0,9.63,8.9l-.762.762a.193.193,0,0,0-.026.241l.272.438a3.175,3.175,0,0,0-.158.381l-.49.109a.193.193,0,0,0-.153.184V12.1a.193.193,0,0,0,.153.184l.49.105a3.236,3.236,0,0,0,.158.385l-.272.438a.193.193,0,0,0,.026.241l.766.727a.193.193,0,0,0,.241.026l.438-.272a3.236,3.236,0,0,0,.385.158l.105.49a.193.193,0,0,0,.188.153h1.082a.193.193,0,0,0,.188-.153l.109-.49a3.175,3.175,0,0,0,.381-.158l.438.272a.193.193,0,0,0,.241-.026l.762-.762a.193.193,0,0,0,.026-.241l-.272-.438a3.237,3.237,0,0,0,.158-.385l.464-.092a.193.193,0,0,0,.153-.184V11a.193.193,0,0,0-.153-.184Zm-1.9.727a1.147,1.147,0,1,1-1.147-1.147,1.147,1.147,0,0,1,1.147,1.147Z" fill="#e60050"/>
    </g>
  </g>
</svg>
