<svg xmlns="http://www.w3.org/2000/svg" width="21.16" height="19" viewBox="0 0 21.16 19">
  <path id="Union_1" data-name="Union 1" d="M.557,19a.557.557,0,1,1,0-1.114H2.114l-.472-3.468A1.58,1.58,0,0,1,.066,12.857V10.381A3.733,3.733,0,0,1,.409,8.1l.453-.9a3.683,3.683,0,0,1,1.143-1.37,7.532,7.532,0,0,1,1.458-.861c.066-.25.222-.854.384-1.488.222-.866.452-1.762.52-2A1.98,1.98,0,0,1,6.783.064L8.162.417A1.993,1.993,0,0,1,9.585,2.834l-.3,1.153A19.868,19.868,0,0,1,12.8,4.73a14.023,14.023,0,0,1,3.592,1.685,1.3,1.3,0,0,1,1.271-1.03h2.2a1.3,1.3,0,0,1,1.3,1.3v7.491a1.3,1.3,0,0,1-1.3,1.3h-2.2a1.315,1.315,0,0,1-1.3-1.16,4.361,4.361,0,0,1-1.378.21,10.247,10.247,0,0,1-3.776-.945,2.078,2.078,0,0,1-2.553.469,2.2,2.2,0,0,1-1.432.608,1.473,1.473,0,0,1-.782-.217l-2.58,3.445H10.2A.557.557,0,0,1,10.2,19Zm2.564-1.978,2.066-2.759-2.53-.656ZM17.474,6.685v.671a.547.547,0,0,1,0,.344v6.476a.186.186,0,0,0,.186.185h2.2a.186.186,0,0,0,.186-.186V6.685a.186.186,0,0,0-.186-.185h-2.2A.186.186,0,0,0,17.474,6.685ZM6.922,13.09c.005.148.01.261.014.343a.544.544,0,0,0,.336.114,1.369,1.369,0,0,0,.754-.435V11.933l-.726-.3ZM5.064,8.876a1.053,1.053,0,0,0,.658.894l3.823,1.589a.561.561,0,0,1,.1.057,14.893,14.893,0,0,0,1.775,1.009,8.534,8.534,0,0,0,3.532.983,3.175,3.175,0,0,0,1.4-.294V7.772a12.14,12.14,0,0,0-3.723-1.926A18.84,18.84,0,0,0,9,5.075l-.649,2.5,3.9,1.093a.557.557,0,1,1-.3,1.073L5.5,7.93A1.051,1.051,0,0,0,5.064,8.876ZM1.859,7.7,1.4,8.6a2.7,2.7,0,0,0-.228,1.708l0,.018v2.531a.442.442,0,0,0,.306.42l-.047-.347a.621.621,0,0,1,.027-.25L3.088,6.419A3.324,3.324,0,0,0,1.859,7.7Zm.815,4.761,3.057.792L6.261,11.2,5.3,10.8a2.019,2.019,0,0,1-.975-.79,2.266,2.266,0,0,1-.36-1.15,2.07,2.07,0,0,1,1.15-1.993.589.589,0,0,1,.464-.071h0l1.7.476L7.59,6.087,4.53,5.293Zm6.466.588a.935.935,0,0,0,.488.15,1.1,1.1,0,0,0,.512-.178c-.34-.188-.676-.391-1-.605ZM5.445,1.761,4.81,4.215l3.06.794.637-2.451a.88.88,0,0,0-.625-1.062L6.5,1.142a.868.868,0,0,0-1.058.619Z" fill="#002c78"/>
</svg>
