<svg xmlns="http://www.w3.org/2000/svg" width="28" height="28" viewBox="0 0 28 28">
  <g id="Group_69788" data-name="Group 69788" transform="translate(-4333 -9826)">
    <circle id="Ellipse_1524" data-name="Ellipse 1524" cx="14" cy="14" r="14" transform="translate(4333 9826)" fill="#bfffe9"/>
    <path id="teams" d="M5.379,7.721a3.115,3.115,0,0,1,.135-.676,3.075,3.075,0,0,1,.277-.676h0A1.046,1.046,0,1,1,6.819,5.286a3.48,3.48,0,0,1,.62-.343,3.933,3.933,0,0,1,.642-.2,2.392,2.392,0,1,0-2.7,2.974Zm.405,2.7a2.548,2.548,0,0,1,.561.074,3.562,3.562,0,0,1-.548-.75,3.622,3.622,0,0,1-.283-.676A3.778,3.778,0,0,0,2,12.843a.676.676,0,0,0,.676.676H4.169a4.792,4.792,0,0,1,.257-.676,5.129,5.129,0,0,1,.385-.676H3.46a2.419,2.419,0,0,1,2.325-1.744ZM10.711,5.3a1.041,1.041,0,1,1,1.034,1.129h0a3.075,3.075,0,0,1,.277.676,3.115,3.115,0,0,1,.135.676A2.392,2.392,0,1,0,9.433,4.745a3.541,3.541,0,0,1,.676.2,3.765,3.765,0,0,1,.6.353ZM12,9.07a3.622,3.622,0,0,1-.284.676,3.379,3.379,0,0,1-.554.757,2.366,2.366,0,0,1,.581-.081,2.426,2.426,0,0,1,2.325,1.744h-1.35a5.13,5.13,0,0,1,.385.676,4.792,4.792,0,0,1,.257.676h1.48a.676.676,0,0,0,.676-.676A3.771,3.771,0,0,0,12,9.069ZM6.73,6.821a2.284,2.284,0,0,0-.331.9,2.487,2.487,0,0,0-.041.4A2.458,2.458,0,0,0,6.629,9.2a2.4,2.4,0,0,0,1.046,1.041,2.359,2.359,0,0,0,1.041.27.183.183,0,0,1,.047.052L8.81,10.5a2.291,2.291,0,0,0,1.027-.261A2.386,2.386,0,0,0,10.878,9.2a2.338,2.338,0,0,0,.277-1.082,2.575,2.575,0,0,0-.041-.405,2.487,2.487,0,0,0-.331-.906,2.318,2.318,0,0,0-.514-.575,2.507,2.507,0,0,0-1.514-.541,2.6,2.6,0,0,0-.615.088,2.447,2.447,0,0,0-.858.433,2.244,2.244,0,0,0-.554.608Zm2.028.223A1.046,1.046,0,1,1,7.712,8.09,1.046,1.046,0,0,1,8.758,7.044Zm3.179,5.8a4.055,4.055,0,0,0-.548-.676,3.812,3.812,0,0,0-1.473-.885h0a3.318,3.318,0,0,0-.743-.183h0a3.548,3.548,0,0,0-.412,0h-.4a3.818,3.818,0,0,0-.743.157h0a3.812,3.812,0,0,0-1.473.885,4.055,4.055,0,0,0-.548.675,4.236,4.236,0,0,0-.345.676A3.751,3.751,0,0,0,5,14.844a.676.676,0,0,0,.676.675h6.19a.676.676,0,0,0,.676-.676,3.751,3.751,0,0,0-.25-1.351A4.236,4.236,0,0,0,11.937,12.843Zm-5.2.676a2.48,2.48,0,0,1,.676-.676,2.068,2.068,0,0,1,.534-.261,2.353,2.353,0,0,1,.676-.122h.157a2.359,2.359,0,0,1,.676.122,2.7,2.7,0,0,1,.523.261,2.365,2.365,0,0,1,1.02,1.351H6.439a2.474,2.474,0,0,1,.3-.676Z" transform="translate(4338.5 9831.031)" fill="#15dd95" stroke="#bfffe9" stroke-width="0.2"/>
  </g>
</svg>
