<svg xmlns="http://www.w3.org/2000/svg" width="40" height="40" viewBox="0 0 40 40">
  <g id="Group_71756" data-name="Group 71756" transform="translate(-14862 11945)">
    <circle id="Ellipse_11877" data-name="Ellipse 11877" cx="20" cy="20" r="20" transform="translate(14862 -11945)" fill="#f8f8f8"/>
    <g id="Group_71755" data-name="Group 71755">
      <g id="Group_71754" data-name="Group 71754">
        <path id="reply" d="M18.044,9.741H7.684l1.4-1.394A1.085,1.085,0,0,0,7.554,6.814L4.313,10.055a1.117,1.117,0,0,0,0,1.534L7.554,14.83A1.085,1.085,0,1,0,9.088,13.3L7.684,11.9H18.044a1.08,1.08,0,0,1,1.08,1.08V17.3a1.08,1.08,0,0,0,2.161,0V12.982a3.241,3.241,0,0,0-3.241-3.241Z" transform="translate(14868.995 -11938.496)" fill="#515867"/>
      </g>
    </g>
  </g>
</svg>
