<svg xmlns="http://www.w3.org/2000/svg" width="18.003" height="18.004" viewBox="0 0 18.003 18.004">
  <path id="Union_5" data-name="Union 5" d="M14529,20310a4.005,4.005,0,0,1-4-4v-10a4.005,4.005,0,0,1,4-4h10a4.005,4.005,0,0,1,4,4v10a4.005,4.005,0,0,1-4,4Zm-2.5-14v10a2.5,2.5,0,0,0,2.5,2.5h10a2.5,2.5,0,0,0,2.5-2.5v-10a2.5,2.5,0,0,0-2.5-2.5h-10A2.5,2.5,0,0,0,14526.5,20296Zm3.1,4.627,1.193-1.191,2.385,2.385,4.17-4.174,1.192,1.191-5.362,5.367Z" transform="translate(-14524.999 -20292)" fill="#515867"/>
</svg>
