<svg xmlns="http://www.w3.org/2000/svg" width="15.646" height="15.645" viewBox="0 0 15.646 15.645">
  <path id="event-days" d="M13843.74,2405.645a1.743,1.743,0,0,1-1.739-1.739v-10.434a1.743,1.743,0,0,1,1.739-1.739h.869v1.738h2.607v-1.738h5.215v1.738h2.607v-1.738h.869a1.741,1.741,0,0,1,1.737,1.738v10.434a1.743,1.743,0,0,1-1.739,1.738Zm0-1.738h12.168v-6.953h-12.168Zm2.644-1.7a1.146,1.146,0,0,1-1.146-1.146v-2.293a1.146,1.146,0,0,1,1.146-1.146h2.293a1.146,1.146,0,0,1,1.146,1.146v2.293a1.146,1.146,0,0,1-1.146,1.146Zm6.483-9.166V2390h1.737v3.042Zm-7.823,0V2390h1.738v3.042Z" transform="translate(-13842.001 -2390)" fill="#fff"/>
</svg>
