<svg xmlns="http://www.w3.org/2000/svg" width="11.759" height="11.759" viewBox="0 0 11.759 11.759">
  <g id="Group_69870" data-name="Group 69870" transform="translate(-403.518 -65.784)">
    <path id="Path_86058" data-name="Path 86058" d="M5.879,0a5.879,5.879,0,1,0,5.879,5.879A5.879,5.879,0,0,0,5.879,0Z" transform="translate(403.518 65.784)" fill="#515867"/>
    <g id="pending" transform="translate(406.884 68.311)">
      <path id="Path_86091" data-name="Path 86091" d="M7.468,1.476V.558h.279a.279.279,0,0,0,0-.558H3.279a.279.279,0,0,0,0,.558h.279v.918a1.944,1.944,0,0,0,1.081,1.75l.25.127-.25.127a1.944,1.944,0,0,0-1.08,1.749v.919h-.28a.279.279,0,0,0,0,.558H7.747a.279.279,0,0,0,0-.558H7.468V5.228a1.944,1.944,0,0,0-1.08-1.749l-.25-.127.25-.127A1.944,1.944,0,0,0,7.468,1.476Zm-3.351,0V.558H6.909v.918a1.388,1.388,0,0,1-.772,1.249l-.625.312-.625-.312a1.388,1.388,0,0,1-.771-1.249ZM6.909,5.222v.919H4.117V5.222a1.388,1.388,0,0,1,.772-1.249l.625-.312.625.312A1.388,1.388,0,0,1,6.91,5.222Z" transform="translate(-3 0)" fill="#fff"/>
      <path id="Path_86092" data-name="Path 86092" d="M9.464,5.32a.279.279,0,0,0,.25-.5.278.278,0,0,1-.154-.25.28.28,0,1,0-.559,0A.833.833,0,0,0,9.464,5.32Zm.749,2.248a.279.279,0,1,0-.25.5.278.278,0,0,1,.154.25.279.279,0,0,0,.558,0,.833.833,0,0,0-.464-.749Z" transform="translate(-7.324 -3.093)" fill="#fff"/>
    </g>
  </g>
</svg>
