<svg xmlns="http://www.w3.org/2000/svg" width="35" height="35" viewBox="0 0 35 35">
  <g id="Group_69985" data-name="Group 69985" transform="translate(-1267 22852.957)">
    <rect id="Rectangle_24356" data-name="Rectangle 24356" width="35" height="35" rx="5" transform="translate(1267 -22852.957)" fill="#bfffe9"/>
    <g id="phone" transform="translate(1274.549 -22844.957)">
      <path id="Path_86158" data-name="Path 86158" d="M14.439,12.954a1.8,1.8,0,0,0-2.549,0l-.87.87a15.678,15.678,0,0,1-2.7-2.171,15.966,15.966,0,0,1-2.171-2.7l.87-.87a1.8,1.8,0,0,0,0-2.549l-1.7-1.691a1.757,1.757,0,0,0-1.266-.528h0a1.8,1.8,0,0,0-1.278.528l-.816.81A3.821,3.821,0,0,0,.974,7.8c.192,2.249,1.667,4.954,3.941,7.233a12.906,12.906,0,0,0,7.257,3.965,4.72,4.72,0,0,0,.5,0,3.641,3.641,0,0,0,2.645-.984l.81-.816a1.8,1.8,0,0,0,.528-1.278,1.757,1.757,0,0,0-.528-1.266Zm.846,3.395-.816.81a2.741,2.741,0,0,1-2.2.6c-1.949-.168-4.432-1.547-6.484-3.6S2.359,9.643,2.173,7.693a2.717,2.717,0,0,1,.6-2.2l.846-.816a.6.6,0,0,1,.426-.174h0a.6.6,0,0,1,.426.174L6.168,6.4a.6.6,0,0,1,0,.846l-1.2,1.2a.6.6,0,0,0-.1.726,16.488,16.488,0,0,0,2.6,3.347,16.488,16.488,0,0,0,3.347,2.6.6.6,0,0,0,.726-.1l1.2-1.2a.6.6,0,0,1,.846,0l1.7,1.7h0a.586.586,0,0,1,0,.834ZM16.328,3.633A8.949,8.949,0,0,0,9.97,1a.6.6,0,0,0,0,1.2,7.8,7.8,0,0,1,7.8,7.863.6.6,0,0,0,.6.6h0a.6.6,0,0,0,.6-.6,8.943,8.943,0,0,0-2.639-6.43Z" transform="translate(0 0)" fill="#15dd95"/>
      <path id="Path_86159" data-name="Path 86159" d="M18.817,9.593a3.6,3.6,0,0,1,1.062,2.585.6.6,0,0,0,.6.6h0a.6.6,0,0,0,.6-.6,4.8,4.8,0,0,0-4.8-4.858.6.6,0,0,0,0,1.2,3.6,3.6,0,0,1,2.537,1.074Z" transform="translate(-5.902 -2.529)" fill="#15dd95"/>
    </g>
  </g>
</svg>
