<svg xmlns="http://www.w3.org/2000/svg" width="16" height="16" viewBox="0 0 16 16">
  <path id="emoji_1_" data-name="emoji (1)" d="M8.4.4a8,8,0,1,0,8,8A8,8,0,0,0,8.4.4Zm0,14.333A6.333,6.333,0,1,1,14.734,8.4,6.333,6.333,0,0,1,8.4,14.733ZM6.318,8.192A1.366,1.366,0,0,0,7.567,6.733a1.366,1.366,0,0,0-1.25-1.458,1.366,1.366,0,0,0-1.25,1.458A1.366,1.366,0,0,0,6.318,8.192Zm4.166,0a1.366,1.366,0,0,0,1.25-1.458,1.366,1.366,0,0,0-1.25-1.458,1.367,1.367,0,0,0-1.25,1.458A1.367,1.367,0,0,0,10.484,8.192Zm1.534,1.322a.63.63,0,0,0-.84.267A3.012,3.012,0,0,1,8.4,11.108,3.019,3.019,0,0,1,5.623,9.781a.625.625,0,0,0-1.116.565A4.219,4.219,0,0,0,8.4,12.358a4.212,4.212,0,0,0,3.892-2.013A.621.621,0,0,0,12.018,9.514Z" transform="translate(-0.4 -0.4)" fill="#515867"/>
</svg>
