<svg xmlns="http://www.w3.org/2000/svg" width="11.759" height="11.759" viewBox="0 0 11.759 11.759">
  <g id="Group_69872" data-name="Group 69872" transform="translate(-12010.518 -1227.784)">
    <path id="Path_86058" data-name="Path 86058" d="M5.879,0a5.879,5.879,0,1,0,5.879,5.879A5.879,5.879,0,0,0,5.879,0Z" transform="translate(12010.518 1227.784)" fill="#e80111"/>
    <g id="Component_648" data-name="Component 648" transform="translate(12014.532 1231.799)">
      <path id="Line_287" data-name="Line 287" d="M4.1,4.571a.466.466,0,0,1-.331-.137L-.863-.2a.468.468,0,0,1,0-.661.468.468,0,0,1,.661,0L4.434,3.773a.468.468,0,0,1-.331.8Z" transform="translate(0 0)" fill="#fff"/>
      <path id="Line_288" data-name="Line 288" d="M-.532,4.571a.466.466,0,0,1-.331-.137.468.468,0,0,1,0-.661L3.773-.863a.468.468,0,0,1,.661,0,.468.468,0,0,1,0,.661L-.2,4.434A.466.466,0,0,1-.532,4.571Z" transform="translate(0 0)" fill="#fff"/>
    </g>
  </g>
</svg>
