<svg xmlns="http://www.w3.org/2000/svg" width="15.649" height="14.897" viewBox="0 0 15.649 14.897">
  <path id="send-mail" d="M15.655,10.941a.745.745,0,0,0-.745.745v2.98a.745.745,0,0,1-.745.745H3.735a.745.745,0,0,1-.745-.745V7.522L7.371,11.91a2.235,2.235,0,0,0,3.159,0l1.222-1.222A.748.748,0,0,0,10.693,9.63L9.472,10.852a.745.745,0,0,1-1.043,0L4.04,6.471H8.95a.745.745,0,0,0,0-1.49H3.735A2.235,2.235,0,0,0,1.5,7.216v7.45A2.235,2.235,0,0,0,3.735,16.9h10.43A2.235,2.235,0,0,0,16.4,14.666v-2.98A.745.745,0,0,0,15.655,10.941Zm1.274-6.489L14.694,2.217a.77.77,0,0,0-1.058,0L11.4,4.452A.748.748,0,1,0,12.459,5.51l.961-.969V8.706a.745.745,0,0,0,1.49,0V4.542l.961.969a.748.748,0,1,0,1.058-1.058Z" transform="translate(-1.5 -2.005)" fill="#15dd95"/>
</svg>
