<svg xmlns="http://www.w3.org/2000/svg" width="45" height="45" viewBox="0 0 45 45">
  <g id="Group_69861" data-name="Group 69861" transform="translate(-1613 -13)">
    <g id="Group_69586" data-name="Group 69586" transform="translate(1613 13)">
      <g id="Rectangle_27020" data-name="Rectangle 27020" fill="none" stroke="#d6d7d8" stroke-width="0.5">
        <rect width="45" height="45" rx="5" stroke="none"/>
        <rect x="0.25" y="0.25" width="44.5" height="44.5" rx="4.75" fill="none"/>
      </g>
      <path id="sethings" d="M15.5,10.466a6.008,6.008,0,0,0,.054-.756,6.009,6.009,0,0,0-.054-.756l1.627-1.272a.389.389,0,0,0,.093-.493L15.678,4.521a.388.388,0,0,0-.47-.17l-1.92.771a5.633,5.633,0,0,0-1.3-.756l-.293-2.043A.376.376,0,0,0,11.314,2H8.23a.376.376,0,0,0-.378.324L7.559,4.367a5.924,5.924,0,0,0-1.3.756l-1.92-.771a.376.376,0,0,0-.47.17L2.324,7.189a.38.38,0,0,0,.093.493L4.044,8.955a6.115,6.115,0,0,0-.054.756,6.115,6.115,0,0,0,.054.756L2.417,11.738a.389.389,0,0,0-.093.493L3.866,14.9a.388.388,0,0,0,.47.17l1.92-.771a5.633,5.633,0,0,0,1.3.756l.3,2.045a.376.376,0,0,0,.378.324h3.084a.376.376,0,0,0,.378-.324l.293-2.043a5.924,5.924,0,0,0,1.3-.756l1.92.771a.376.376,0,0,0,.47-.17l1.542-2.668a.389.389,0,0,0-.093-.493ZM9.772,12.409a2.7,2.7,0,1,1,2.7-2.7,2.7,2.7,0,0,1-2.7,2.7Z" transform="translate(12.73 13)" fill="#515867"/>
    </g>
  </g>
</svg>
