<svg xmlns="http://www.w3.org/2000/svg" width="15.708" height="15" viewBox="0 0 15.708 15">
  <path id="star-shape" d="M17.688,8.11a.784.784,0,0,0-.675-.526l-4.463-.651-2-4.055a.784.784,0,0,0-1.412,0l-2,4.047-4.463.659A.773.773,0,0,0,2.237,8.9l3.239,3.137-.784,4.455a.784.784,0,0,0,1.137.839l4.016-2.094,4,2.1a.729.729,0,0,0,.361.094.788.788,0,0,0,.776-.933L14.2,12.047,17.437,8.91A.784.784,0,0,0,17.688,8.11Zm-4.824,3.137a.784.784,0,0,0-.227.7l.565,3.286-2.949-1.569a.784.784,0,0,0-.737,0L6.566,15.232l.565-3.286a.784.784,0,0,0-.227-.7L4.55,8.894l3.3-.478a.784.784,0,0,0,.6-.431L9.845,5l1.475,3a.784.784,0,0,0,.6.431l3.3.478Z" transform="translate(-2.006 -2.436)" fill="#515867"/>
</svg>
