<svg xmlns="http://www.w3.org/2000/svg" width="15.229" height="13.801" viewBox="0 0 15.229 13.801">
  <path id="hierarchy" d="M15.753,12.494H14.8V9.638a.45.45,0,0,0-.476-.476H9.09v-1.9h1.9a.45.45,0,0,0,.476-.476V2.976a.45.45,0,0,0-.476-.476H6.235a.45.45,0,0,0-.476.476V6.783a.45.45,0,0,0,.476.476h1.9v1.9H2.9a.45.45,0,0,0-.476.476v2.855H1.476A.45.45,0,0,0,1,12.97v2.855a.45.45,0,0,0,.476.476H4.331a.45.45,0,0,0,.476-.476V12.97a.45.45,0,0,0-.476-.476H3.379V10.114H8.138v2.379H7.187a.45.45,0,0,0-.476.476v2.855a.45.45,0,0,0,.476.476h2.855a.45.45,0,0,0,.476-.476V12.97a.45.45,0,0,0-.476-.476H9.09V10.114h4.759v2.379H12.9a.45.45,0,0,0-.476.476v2.855a.45.45,0,0,0,.476.476h2.855a.45.45,0,0,0,.476-.476V12.97A.45.45,0,0,0,15.753,12.494ZM6.711,3.452h3.807V6.307H6.711Zm-2.855,11.9h-1.9v-1.9h1.9Zm5.711,0h-1.9v-1.9h1.9Zm5.711,0h-1.9v-1.9h1.9Z" transform="translate(-1 -2.5)" fill="#15dd95"/>
</svg>
