<svg xmlns="http://www.w3.org/2000/svg" width="18" height="13.034" viewBox="0 0 18 13.034"><g transform="translate(8621 -4925)"><path d="M-11.069,1.034A.931.931,0,0,1-12,.1V-11.069A.931.931,0,0,1-11.069-12a.931.931,0,0,1,.931.931V.1A.931.931,0,0,1-11.069,1.034Z" transform="translate(-8603.414 4937)" fill="#15dd95"/><path d="M28.448,57.034h-14.9A1.553,1.553,0,0,1,12,55.483V53.558a1.556,1.556,0,0,1,1.243-1.52,1.552,1.552,0,0,0,0-3.042A1.555,1.555,0,0,1,12,47.476V45.552A1.553,1.553,0,0,1,13.552,44h14.9A1.553,1.553,0,0,1,30,45.552v1.925A1.556,1.556,0,0,1,28.757,49a1.552,1.552,0,0,0,0,3.042A1.555,1.555,0,0,1,30,53.558v1.925A1.553,1.553,0,0,1,28.448,57.034ZM13.862,55.172H28.138V53.8a3.414,3.414,0,0,1,0-6.57v-1.37H13.862v1.37a3.414,3.414,0,0,1,0,6.57Z" transform="translate(-8633 4881)" fill="#15dd95"/></g></svg>