<svg xmlns="http://www.w3.org/2000/svg" width="11.918" height="15.9" viewBox="0 0 11.918 15.9">
  <g id="pending" transform="translate(-144.568 -398.555)">
    <path id="Path_86091" data-name="Path 86091" d="M13.594,3.5V1.324h.662a.662.662,0,0,0,0-1.324H3.662a.662.662,0,0,0,0,1.324h.662V3.5A4.61,4.61,0,0,0,6.887,7.65l.592.3-.592.3A4.61,4.61,0,0,0,4.325,12.4v2.18H3.662a.662.662,0,0,0,0,1.324H14.256a.662.662,0,0,0,0-1.324h-.662V12.4A4.61,4.61,0,0,0,11.032,8.25l-.592-.3.592-.3A4.61,4.61,0,0,0,13.594,3.5Zm-7.946,0V1.324H12.27V3.5a3.292,3.292,0,0,1-1.83,2.961L8.959,7.2l-1.481-.74A3.292,3.292,0,0,1,5.649,3.5Zm6.621,8.883v2.18H5.649v-2.18a3.292,3.292,0,0,1,1.83-2.961l1.481-.74,1.481.74a3.292,3.292,0,0,1,1.83,2.961Z" transform="translate(141.568 398.555)" fill="#515867"/>
    <path id="Path_86092" data-name="Path 86092" d="M10.1,6.731a.662.662,0,0,0,.592-1.185.658.658,0,0,1-.366-.592A.663.663,0,1,0,9,4.954,1.976,1.976,0,0,0,10.1,6.731Zm1.776,5.33a.662.662,0,1,0-.592,1.185.658.658,0,0,1,.366.592.662.662,0,1,0,1.324,0,1.976,1.976,0,0,0-1.1-1.777Z" transform="translate(139.541 397.104)" fill="#515867"/>
  </g>
</svg>
