<svg xmlns="http://www.w3.org/2000/svg" width="18.999" height="18.999" viewBox="0 0 18.999 18.999"><path d="M143.168,29.383l2.028-2.028v10.73a.983.983,0,1,0,1.965,0V27.354l2.028,2.028a.983.983,0,1,0,1.39-1.39l-3.706-3.706a.983.983,0,0,0-1.39,0l-3.706,3.706a.983.983,0,0,0,1.39,1.39Z" transform="translate(-136.68 -23.999)" fill="#15dd95"/><path d="M42.016,232a.983.983,0,0,0-.983.983v7.534H25.965v-7.534a.983.983,0,0,0-1.965,0v7.862a1.638,1.638,0,0,0,1.638,1.638H41.361A1.638,1.638,0,0,0,43,240.844v-7.862A.983.983,0,0,0,42.016,232Z" transform="translate(-24 -223.483)" fill="#15dd95"/></svg>