<svg xmlns="http://www.w3.org/2000/svg" width="32.351" height="32.334" viewBox="0 0 32.351 32.334">
  <g id="Group_69981" data-name="Group 69981" transform="translate(9902.176 22126.166)">
    <path id="upload-image" d="M28.181,19.478a1.54,1.54,0,0,0-1.54,1.54V21.6l-2.279-2.279a4.3,4.3,0,0,0-6.053,0L17.231,20.4l-3.819-3.819a4.389,4.389,0,0,0-6.053,0L5.08,18.862V10.238A1.54,1.54,0,0,1,6.62,8.7H17.4a1.54,1.54,0,0,0,0-3.08H6.62A4.62,4.62,0,0,0,2,10.238V28.719a4.62,4.62,0,0,0,4.62,4.62H25.1a4.62,4.62,0,0,0,4.62-4.62v-7.7A1.54,1.54,0,0,0,28.181,19.478ZM6.62,30.259a1.54,1.54,0,0,1-1.54-1.54v-5.5l4.466-4.466a1.217,1.217,0,0,1,1.679,0l4.882,4.882h0l6.622,6.622Zm20.021-1.54a1.371,1.371,0,0,1-.277.816l-6.946-6.977L20.5,21.48a1.186,1.186,0,0,1,1.694,0l4.451,4.482ZM33.9,6.064l-4.62-4.62a1.592,1.592,0,0,0-2.187,0l-4.62,4.62a1.546,1.546,0,0,0,2.187,2.187l1.987-2v8.609a1.54,1.54,0,1,0,3.08,0V6.249l1.987,2A1.546,1.546,0,1,0,33.9,6.064Z" transform="translate(-9904.176 -22127.172)" fill="#515867"/>
  </g>
</svg>
