<svg xmlns="http://www.w3.org/2000/svg" width="13.646" height="13.647" viewBox="0 0 13.646 13.647">
  <g id="Page-1" transform="translate(0 0)">
    <g id="Dribbble-Light-Preview">
      <g id="icons">
        <path id="profile-_1341_" data-name="profile-[#1341]" d="M130.823,2005.823a2.729,2.729,0,1,1,2.742-2.729,2.739,2.739,0,0,1-2.742,2.729m2.576.459a4.079,4.079,0,0,0,1.489-3.823,4.116,4.116,0,0,0-8.179.635,4.075,4.075,0,0,0,1.537,3.188A6.5,6.5,0,0,0,124,2011.89a.69.69,0,0,0,.685.757.676.676,0,0,0,.677-.608,5.5,5.5,0,0,1,10.916,0,.676.676,0,0,0,.677.608.69.69,0,0,0,.685-.757,6.5,6.5,0,0,0-4.244-5.607" transform="translate(-124 -1999)" fill="#15dd95" fill-rule="evenodd"/>
      </g>
    </g>
  </g>
</svg>
