<svg xmlns="http://www.w3.org/2000/svg" width="14.3" height="10.095" viewBox="0 0 14.3 10.095">
  <g id="Layer_2" data-name="Layer 2" transform="translate(-1.85 -4.85)">
    <path id="video" d="M15.293,6.5A1.189,1.189,0,0,0,14,6.714l-1.5,1.4V7.1A2.1,2.1,0,0,0,10.4,5H4.1A2.1,2.1,0,0,0,2,7.1v5.6a2.1,2.1,0,0,0,2.1,2.1h6.3a2.1,2.1,0,0,0,2.1-2.1V11.682l1.511,1.4a1.217,1.217,0,0,0,.812.315,1.175,1.175,0,0,0,.483-.1,1.119,1.119,0,0,0,.7-1.035V7.54A1.119,1.119,0,0,0,15.293,6.5ZM11.1,12.7a.7.7,0,0,1-.7.7H4.1a.7.7,0,0,1-.7-.7V7.1a.7.7,0,0,1,.7-.7h6.3a.7.7,0,0,1,.7.7Zm3.5-.98L12.628,9.9l1.966-1.819Z" transform="translate(0)" fill="#515867" stroke="#fff" stroke-width="0.3"/>
  </g>
</svg>
