<svg xmlns="http://www.w3.org/2000/svg" width="15.3" height="19.05" viewBox="0 0 15.3 19.05">
  <path id="Union_55" data-name="Union 55" d="M4493.9-651.95a2.027,2.027,0,0,1-2.025-2.025V-660.7h-1.1a.776.776,0,0,1-.776-.775.777.777,0,0,1,.776-.776h3.193a5.155,5.155,0,0,1-1.469-3.6,5.156,5.156,0,0,1,5.15-5.149,5.155,5.155,0,0,1,5.15,5.149,5.155,5.155,0,0,1-1.469,3.6h3.194a.777.777,0,0,1,.774.776.776.776,0,0,1-.774.775h-1.1v6.725a2.028,2.028,0,0,1-2.025,2.025Zm-.476-2.025a.477.477,0,0,0,.476.475h7.5a.476.476,0,0,0,.475-.475V-660.7h-8.451Zm.625-11.876a3.6,3.6,0,0,0,3.6,3.6,3.6,3.6,0,0,0,3.6-3.6,3.6,3.6,0,0,0-3.6-3.6A3.605,3.605,0,0,0,4494.05-665.85Zm2.583,1.539-.937-.937a.777.777,0,0,1,0-1.1.769.769,0,0,1,.548-.227.766.766,0,0,1,.548.227l.39.389,1.326-1.326a.769.769,0,0,1,.548-.227.766.766,0,0,1,.547.227.776.776,0,0,1,0,1.1l-1.875,1.875a.765.765,0,0,1-.547.227A.766.766,0,0,1,4496.633-664.312Z" transform="translate(-4490 671)" fill="#15dd95"/>
</svg>
