<svg id="Group_71862" data-name="Group 71862" xmlns="http://www.w3.org/2000/svg" width="23.853" height="23.853" viewBox="0 0 23.853 23.853">
  <circle id="Ellipse_11900" data-name="Ellipse 11900" cx="11.926" cy="11.926" r="11.926" fill="#ffda6b"/>
  <ellipse id="Ellipse_11901" data-name="Ellipse 11901" cx="3.593" cy="4.841" rx="3.593" ry="4.841" transform="translate(8.059 11.124)" fill="#090a0b"/>
  <ellipse id="Ellipse_11902" data-name="Ellipse 11902" cx="2.534" cy="1.779" rx="2.534" ry="1.779" transform="translate(4.162 11.069) rotate(-81.396)" fill="#090a0b"/>
  <ellipse id="Ellipse_11903" data-name="Ellipse 11903" cx="1.779" cy="2.534" rx="1.779" ry="2.534" transform="translate(14.843 6.589) rotate(-8.604)" fill="#090a0b"/>
  <path id="Path_86058" data-name="Path 86058" d="M976.82,141.787a.488.488,0,0,1-.4-.2,1.534,1.534,0,0,0-2.172-.344.489.489,0,0,1-.534-.818,2.489,2.489,0,0,1,3.5.589.489.489,0,0,1-.4.774Z" transform="translate(-958.456 -137.692)" fill="#090a0b"/>
  <path id="Path_86058-2" data-name="Path 86058" d="M973.985,141.787a.488.488,0,0,0,.4-.2,1.534,1.534,0,0,1,2.172-.344.489.489,0,0,0,.534-.818,2.489,2.489,0,0,0-3.5.589.489.489,0,0,0,.4.774Z" transform="translate(-969.328 -137.692)" fill="#090a0b"/>
</svg>
