<svg xmlns="http://www.w3.org/2000/svg" width="13.646" height="11.794" viewBox="0 0 13.646 11.794">
  <path id="alert-triangle" d="M14.386,10.874,9.625,2.98a2.129,2.129,0,0,0-3.587,0l-4.76,7.895a1.862,1.862,0,0,0-.031,1.862,2.092,2.092,0,0,0,1.825,1.055h9.521a2.092,2.092,0,0,0,1.825-1.03,1.862,1.862,0,0,0-.031-1.887Zm-6.554.434a.621.621,0,1,1,.621-.621A.621.621,0,0,1,7.832,11.309Zm.621-2.483a.621.621,0,0,1-1.241,0V6.343a.621.621,0,0,1,1.241,0Z" transform="translate(-1.013 -1.997)" fill="#e80111"/>
</svg>
