<svg xmlns="http://www.w3.org/2000/svg" width="170.587" height="38.676" viewBox="0 0 170.587 38.676"><path d="M55.856,183.122a8.789,8.789,0,0,1,4.186-7.373,9,9,0,0,0-7.089-3.834c-2.984-.313-5.874,1.785-7.394,1.785-1.549,0-3.89-1.754-6.409-1.7a9.444,9.444,0,0,0-7.945,4.845c-3.436,5.948-.873,14.687,2.418,19.5,1.646,2.353,3.57,4.982,6.087,4.889,2.465-.1,3.384-1.569,6.357-1.569,2.946,0,3.811,1.569,6.38,1.511,2.644-.041,4.308-2.364,5.9-4.74a19.443,19.443,0,0,0,2.7-5.494A8.494,8.494,0,0,1,55.856,183.122Z" transform="translate(-29.574 -162.555)" fill="#fff"/><path d="M42.9,173.583a8.651,8.651,0,0,0,1.978-6.2,8.809,8.809,0,0,0-5.7,2.948,8.237,8.237,0,0,0-2.032,5.969A7.279,7.279,0,0,0,42.9,173.583Z" transform="translate(-21.465 -167.384)" fill="#fff"/><g transform="translate(42.387 10.248)"><path d="M63.468,187.976H55.384l-1.941,5.731H50.018l7.657-21.21h3.558l7.659,21.21H65.409Zm-7.246-2.648H62.63l-3.158-9.3h-.089Z" transform="translate(-50.018 -172.145)" fill="#fff"/><path d="M74.637,183.085c0,4.806-2.571,7.893-6.454,7.893a5.238,5.238,0,0,1-4.864-2.706h-.073v7.661H60.072v-20.58h3.073v2.571h.06a5.484,5.484,0,0,1,4.922-2.733C72.05,175.192,74.637,178.294,74.637,183.085Zm-3.261,0c0-3.131-1.619-5.187-4.087-5.187-2.426,0-4.058,2.1-4.058,5.187,0,3.116,1.632,5.2,4.058,5.2C69.757,188.287,71.376,186.245,71.376,183.085Z" transform="translate(-39.226 -169.254)" fill="#fff"/><path d="M82.845,183.085c0,4.806-2.571,7.893-6.452,7.893a5.241,5.241,0,0,1-4.866-2.706h-.075v7.661h-3.17v-20.58h3.073v2.571h.06a5.484,5.484,0,0,1,4.922-2.733C80.258,175.192,82.845,178.294,82.845,183.085Zm-3.261,0c0-3.131-1.619-5.187-4.087-5.187-2.426,0-4.058,2.1-4.058,5.187,0,3.116,1.632,5.2,4.058,5.2C77.965,188.287,79.584,186.245,79.584,183.085Z" transform="translate(-30.414 -169.254)" fill="#fff"/><path d="M82.412,187.98c.234,2.1,2.279,3.483,5.069,3.483,2.677,0,4.6-1.381,4.6-3.276,0-1.646-1.161-2.633-3.91-3.309l-2.747-.661c-3.9-.941-5.7-2.762-5.7-5.718,0-3.659,3.191-6.172,7.717-6.172,4.483,0,7.555,2.513,7.661,6.172H91.893c-.191-2.117-1.941-3.394-4.5-3.394s-4.306,1.294-4.306,3.174c0,1.5,1.118,2.382,3.85,3.058l2.337.572c4.352,1.03,6.158,2.778,6.158,5.88,0,3.968-3.158,6.454-8.186,6.454-4.7,0-7.879-2.428-8.084-6.263Z" transform="translate(-18.733 -172.327)" fill="#fff"/><path d="M93.132,173.5v3.659h2.94v2.513h-2.94V188.2c0,1.323.589,1.941,1.881,1.941a10.324,10.324,0,0,0,1.045-.073v2.5a8.81,8.81,0,0,1-1.762.147c-3.131,0-4.352-1.178-4.352-4.176v-8.863h-2.25v-2.513h2.25V173.5Z" transform="translate(-9.578 -171.064)" fill="#fff"/><path d="M92.556,183.1c0-4.864,2.865-7.922,7.333-7.922,4.485,0,7.336,3.058,7.336,7.922s-2.836,7.922-7.336,7.922S92.556,187.978,92.556,183.1Zm11.435,0c0-3.338-1.53-5.308-4.1-5.308s-4.1,1.986-4.1,5.308c0,3.35,1.528,5.306,4.1,5.306S103.991,186.45,103.991,183.1Z" transform="translate(-4.36 -169.268)" fill="#fff"/><path d="M100.893,175.354h3.025v2.631h.075a3.684,3.684,0,0,1,3.72-2.793,4.794,4.794,0,0,1,1.086.118v2.969a4.475,4.475,0,0,0-1.424-.193,3.2,3.2,0,0,0-3.326,3.066,3,3,0,0,0,.017.491v9.172h-3.172Z" transform="translate(4.589 -169.255)" fill="#fff"/><path d="M118.987,186.287c-.427,2.807-3.162,4.733-6.66,4.733-4.5,0-7.29-3.015-7.29-7.85s2.807-7.995,7.157-7.995c4.277,0,6.969,2.938,6.969,7.626v1.088h-10.92v.191a4.024,4.024,0,0,0,4.159,4.381,3.5,3.5,0,0,0,3.572-2.175Zm-10.73-4.615h7.729a3.718,3.718,0,0,0-3.506-3.919q-.143-.009-.286-.006a3.914,3.914,0,0,0-3.937,3.892v.033Z" transform="translate(9.037 -169.269)" fill="#fff"/></g></svg>