<svg xmlns="http://www.w3.org/2000/svg" width="24.552" height="30.332" viewBox="0 0 24.552 30.332">
  <path id="benefit" d="M13,12.572v1.906a7.943,7.943,0,1,1-1.444,0V12.572L7.626,8.665A7.943,7.943,0,0,1,0,.722.722.722,0,0,1,.722,0,7.943,7.943,0,0,1,8.665,7.626l3.611,3.611,3.611-3.611A7.943,7.943,0,0,1,23.83,0a.722.722,0,0,1,.722.722,7.943,7.943,0,0,1-7.626,7.943Zm4.376-5.394a6.5,6.5,0,0,0,5.69-5.69,6.5,6.5,0,0,0-5.69,5.69Zm-10.2,0a6.5,6.5,0,0,0-5.69-5.69,6.5,6.5,0,0,0,5.69,5.69Zm5.1,8.709a6.5,6.5,0,1,0,6.5,6.5A6.5,6.5,0,0,0,12.276,15.887Z" transform="translate(0)" fill="#515867"/>
</svg>
