<svg xmlns="http://www.w3.org/2000/svg" width="45" height="45" viewBox="0 0 45 45">
  <g id="Group_73503" data-name="Group 73503" transform="translate(-1790 -135)">
    <g id="Path_90379" data-name="Path 90379" transform="translate(1790 135)" fill="#fff" stroke-linecap="round">
      <path d="M 40 44.5 L 5 44.5 C 2.51869010925293 44.5 0.5 42.4813117980957 0.5 40 L 0.5 5 C 0.5 2.51869010925293 2.51869010925293 0.5 5 0.5 L 40 0.5 C 42.4813117980957 0.5 44.5 2.51869010925293 44.5 5 L 44.5 40 C 44.5 42.4813117980957 42.4813117980957 44.5 40 44.5 Z" stroke="none"/>
      <path d="M 5 1 C 2.794391632080078 1 1 2.794391632080078 1 5 L 1 40 C 1 42.20560836791992 2.794391632080078 44 5 44 L 40 44 C 42.20560836791992 44 44 42.20560836791992 44 40 L 44 5 C 44 2.794391632080078 42.20560836791992 1 40 1 L 5 1 M 5 0 L 40 0 C 42.76142120361328 0 45 2.238571166992188 45 5 L 45 40 C 45 42.76142120361328 42.76142120361328 45 40 45 L 5 45 C 2.238571166992188 45 0 42.76142120361328 0 40 L 0 5 C 0 2.238571166992188 2.238571166992188 0 5 0 Z" stroke="none" fill="#fde7e8"/>
    </g>
    <path id="Subtraction_1" data-name="Subtraction 1" d="M13282.863,13792a4.777,4.777,0,0,1-2.638-.793,5.013,5.013,0,0,1-1.773-2.06h-5.808a2.687,2.687,0,0,1-2.645-2.723v-12.7a2.686,2.686,0,0,1,2.645-2.722h5.335a.733.733,0,0,1,.291.1.324.324,0,0,1,.04,0,.307.307,0,0,1,.04,0,.994.994,0,0,1,.245.172l5.29,5.444a1,1,0,0,1,.167.253v.082a1.013,1.013,0,0,1,.054.244v4.786a5.06,5.06,0,0,1-1.243,9.918Zm0-3.93h0l1.224,1.263a.751.751,0,0,0,.542.233.735.735,0,0,0,.54-.235.776.776,0,0,0,.227-.553.8.8,0,0,0-.227-.556l-1.227-1.265,1.224-1.261a.793.793,0,0,0,0-1.116.752.752,0,0,0-.537-.228.763.763,0,0,0-.542.23l-1.224,1.262-1.229-1.262a.748.748,0,0,0-1.077,0,.8.8,0,0,0,0,1.114l1.226,1.263-1.224,1.261a.794.794,0,0,0-.229.56.785.785,0,0,0,.227.555.744.744,0,0,0,1.082,0l1.226-1.263Zm-10.222-15.257a.9.9,0,0,0-.882.907v12.7a.9.9,0,0,0,.882.907h5.335c-.008-.125-.011-.247-.011-.372a5.188,5.188,0,0,1,.2-1.442h-3.764a.908.908,0,0,1,0-1.815h4.72a4.822,4.822,0,0,1,3.215-1.754v-3.69h-2.645a2.687,2.687,0,0,1-2.646-2.722v-2.723Zm6.172,1.279h0v1.442a.9.9,0,0,0,.882.907h1.4l-2.283-2.35Zm.882,7.795h-5.29a.908.908,0,0,1,0-1.815h5.29a.908.908,0,0,1,0,1.815Zm-4.408-3.63h-.882a.908.908,0,0,1,0-1.814h.882a.908.908,0,0,1,0,1.814Z" transform="translate(-11466 -13624)" fill="#e80111"/>
  </g>
</svg>
