<?xml version="1.0" encoding="utf-8"?>
<!-- Generator: Adobe Illustrator 27.6.1, SVG Export Plug-In . SVG Version: 6.00 Build 0)  -->
<svg version="1.1" id="Layer_1" xmlns="http://www.w3.org/2000/svg" xmlns:xlink="http://www.w3.org/1999/xlink" x="0px" y="0px"
	 viewBox="0 0 215.4 215.4" style="enable-background:new 0 0 215.4 215.4;" xml:space="preserve">
<style type="text/css">
	.st0{fill:#090A0B;}
</style>
<path class="st0" d="M14.8,98.8c0-0.4-0.2-0.8-0.4-1.1c-0.2-0.4-0.5-0.7-0.9-0.8c-1.4,2-2.7,4-4.1,6.1c1-0.1,2.1-0.5,3-0.9
	C14,101.2,14.8,100.1,14.8,98.8z M15.8,106.1c0,1.3-0.5,2.6-1.3,3.7c-0.7,1-1.6,1.8-2.6,2.5c-1.1,0.8-2.2,1.5-3.4,2
	c-1.7,0.7-3.5,1-5.3,1c-0.8,0-1.6-0.1-2.4-0.4c-0.7-0.2-1.1-0.9-1.1-1.6c0-0.4,0.1-0.8,0.3-1.1c0.2-0.3,0.5-0.4,0.8-0.4
	c0.6,0.1,1.3,0.2,1.9,0.3c0.5,0.1,1,0.2,1.4,0.2c1.1,0,2.2-0.1,3.3-0.3c0.9-0.2,1.7-0.4,2.5-0.8c1-0.5,1.9-1.1,2.7-1.9
	c0.6-0.5,1-1.1,1.1-1.9c0-0.5-0.1-0.9-0.4-1.3c-0.5-0.5-1.2-0.8-1.9-0.8c-0.6,0-1.1,0.1-1.7,0.2c-0.6,0.1-1.2,0.3-1.8,0.6
	c-0.6,1.7-1.1,2.9-1.3,3.4c-0.7,1.5-1.3,2.2-2,2.2c-1,0-1.4-0.4-1.4-1.2c0.1-0.9,0.5-1.7,1-2.4c0.5-0.8,1-1.6,1.6-2.4
	c-0.4,0-0.8-0.2-1.2-0.4c-0.3-0.2-0.4-0.5-0.4-0.9c0-0.3,0.1-0.6,0.4-0.8c0.1-0.2,0.4-0.4,0.7-0.4h0.5c0.5,0,1.1-0.1,1.6-0.1
	c0.5-1,1.4-2.4,2.6-4.2c0.9-1.3,1.6-2.3,2.1-3c-0.3-0.1-0.7-0.2-1.1-0.3c-0.4-0.1-0.8-0.1-1.1-0.1c-1.2,0.1-2.3,0.4-3.4,0.9
	c-0.8,0.3-1.5,0.7-2.2,1.3c-0.3,0.4-0.8,0.6-1.3,0.6c-0.3,0-0.5-0.1-0.6-0.3C2,97.8,2,97.6,2,97.4c0-0.8,1-1.7,3-2.7
	c1.8-0.9,3.7-1.4,5.7-1.5c1.6-0.1,3.3,0.4,4.7,1.3c1.3,0.9,2,2.5,1.9,4c0,1.1-0.5,2.2-1.3,3c-0.9,0.9-1.9,1.6-3,2.2
	c0.8,0.1,1.5,0.4,2.1,0.8C15.5,104.9,15.8,105.5,15.8,106.1z M33.3,108.4c0,0.5-1,1.4-3,2.9c-2.2,1.6-3.9,2.3-5.2,2.3
	c-0.7,0.1-1.4-0.2-1.9-0.6c-0.3-0.4-0.5-0.9-0.4-1.3c0-0.4,0.1-0.7,0.3-1.1c0-0.1,0.2-0.4,0.4-1.1l-1.8,2.3
	c-0.9,1.1-2.2,1.8-3.7,1.9c-0.7,0-1.3-0.2-1.8-0.7c-0.5-0.5-0.8-1.1-0.7-1.8c-0.1-0.8,0.1-1.6,0.5-2.3c0.4-0.5,1-0.8,1.7-0.7
	c0.5-0.1,1,0.2,1.2,0.7c0.1,0.4,0.2,0.8,0.2,1.2c0,0.3,0,0.5,0.1,0.6c0.2,0.1,0.4,0.1,0.5,0.1c0.6,0,1.6-1,3.2-3.1s2.6-3.1,3-3.1
	c0.4,0,0.7,0.1,1,0.3c0.3,0.2,0.4,0.5,0.4,0.9c-0.2,0.8-0.5,1.6-1,2.4c-0.4,0.7-0.7,1.4-1,2.1c0,0.2,0,0.4,0.1,0.7
	c0.1,0.2,0.2,0.3,0.4,0.2c1.2-0.1,2.3-0.4,3.3-1l3.5-2.1C33.1,107.8,33.3,108,33.3,108.4L33.3,108.4z M45,110.4c0,0.4-0.7,1-2.1,1.8
	c-0.9,0.7-2,1.1-3.2,1.2c-0.7,0.1-1.4-0.2-1.9-0.7c-0.3-0.7-0.5-1.2-0.7-1.6c-0.5,0.5-1.1,1-1.7,1.4c-0.9,0.6-2,1-3.1,0.9
	c-0.5,0.1-1.1-0.1-1.5-0.4c-0.3-0.4-0.4-0.8-0.4-1.3c0-1.2,0.8-2.4,2.3-3.8c1.1-1.2,2.7-1.9,4.4-2.1c0.7-0.1,1.4,0.2,1.9,0.7
	c0.5,0.5,0.7,1.2,0.8,1.9c0,0.2,0,0.5,0,0.7c0,0.3,0,0.6,0,0.8c0,0.3,0,0.6,0.2,0.9c0.1,0.2,0.4,0.4,0.6,0.3c0.6,0,1.1-0.2,1.7-0.5
	c0.7-0.3,1.4-0.6,2.2-1C44.8,109.9,45,110,45,110.4L45,110.4z M36.5,108.9c0-0.3-0.2-0.5-0.6-0.5c-0.6,0.1-1.2,0.4-1.7,0.8
	c-0.5,0.3-0.8,0.9-0.9,1.4c0,0.2,0.3,0.3,0.8,0.3c0.6-0.1,1.1-0.3,1.5-0.7C36.2,109.7,36.5,109.3,36.5,108.9L36.5,108.9z M53,105.1
	c-0.2,0-0.4,0-0.5,0c-0.1,0-0.3,0-0.4-0.1c0,0.6,0,1,0,1.2c-0.1,0.5-0.1,0.9-0.2,1.4c-0.3,1.8-1.1,3.6-2.4,4.9
	c-1.1,1.1-2.5,1.7-4,1.7c-0.6,0-1.2-0.2-1.7-0.6c-0.6-0.4-0.9-1.1-0.9-1.9c0-1.7,0.8-3.3,2-4.4c1.2-1.2,2.2-1.9,3.2-1.9
	c0.8-0.1,1.6,0.3,2.2,0.8c0.1-0.3,0.1-0.5,0.1-0.8c0-0.3,0-0.6,0-0.9c-0.5-0.2-1-0.5-1.5-0.7c-0.5-0.2-1-0.5-1.4-0.8
	c-1.2-0.8-2.2-1.8-3-3.1c-0.5-0.9-0.8-1.9-0.8-3c0-1,0.4-2,1.1-2.8c0.7-0.8,1.7-1.2,2.7-1.2c1.7,0,3,1.2,3.9,3.7
	c0.7,2.2,1.1,4.5,1,6.7c0.9,0.2,1.4,0.6,1.4,1C53.6,104.9,53.4,105.1,53,105.1L53,105.1z M50.3,102.7c0-1.6-0.3-3.1-0.9-4.6
	c-0.7-1.8-1.4-2.6-2.2-2.6c-0.4,0-0.7,0.2-0.8,0.6c-0.2,0.3-0.3,0.7-0.3,1.1c0.1,1,0.5,1.9,1.1,2.7c0.4,0.5,0.8,1,1.3,1.5
	C49,101.8,49.6,102.2,50.3,102.7L50.3,102.7z M49.1,109.4c0-0.3-0.1-0.6-0.4-0.8c-0.2-0.2-0.5-0.3-0.8-0.3c-0.6,0-1.1,0.4-1.5,1.1
	c-0.4,0.5-0.6,1.1-0.7,1.7c0,0.2,0.1,0.4,0.1,0.5c0.1,0.2,0.2,0.3,0.4,0.3c0.7,0,1.4-0.3,1.9-0.8C48.7,110.8,49,110.1,49.1,109.4
	L49.1,109.4z M67.7,110.9c0,0.4-0.7,1-2.1,1.8c-1,0.6-2.1,1-3.2,1.2c-0.7,0.1-1.4-0.2-1.8-0.8c-0.4-0.6-0.6-1.3-0.5-1.9
	c0-0.2,0-0.5,0-0.7c-0.9,0.9-1.8,1.7-2.9,2.3c-0.9,0.6-1.9,0.9-2.9,0.9c-0.5,0-1-0.2-1.4-0.5c-0.4-0.4-0.6-0.9-0.5-1.4
	c0-0.2,0-0.3,0.1-0.5c0.2-0.9,0.5-1.8,0.9-2.6c0.1-0.1,0.4-0.8,1-2.1c0.2-0.4,0.6-0.8,1-1c0.3-0.2,0.7-0.3,1.1-0.2
	c0.3,0.1,0.4,0.3,0.4,0.7v0.4c-0.1,0.7-0.4,1.3-0.7,1.9c-0.3,0.6-0.5,1.3-0.7,1.9c0,0.2,0.1,0.3,0.4,0.3c0.6,0,1.1-0.2,1.7-0.5
	c0.8-0.4,1.5-0.8,2.1-1.3c0.5-0.4,0.9-0.9,1.3-1.4c0.5-0.6,0.8-0.9,1.1-0.9c0.4,0,0.7,0.1,1,0.3c0.2,0.2,0.3,0.4,0.3,0.7
	c0,0.2,0,0.4-0.1,0.6c-0.1,0.2-0.2,0.4-0.3,0.6c-0.2,0.3-0.3,0.7-0.3,1.1c-0.1,0.5-0.1,0.9-0.1,1.4c0,0.3,0.1,0.4,0.3,0.4
	c0.7,0,1.5-0.2,2.2-0.4c0.8-0.3,1.7-0.6,2.6-0.9C67.6,110.4,67.7,110.6,67.7,110.9L67.7,110.9z M91.9,108.4c-0.2,0.6-1.2,1.6-3,3
	c-2,1.6-3.7,2.3-5,2.3c-0.8,0-1.5-0.3-2-0.9c-0.4-0.5-0.5-1.1-0.5-1.7c0-0.3,0.1-0.6,0.2-0.9l0.5-1.3c-0.9,0.9-1.9,1.8-2.8,2.7
	c-1,1-2.3,1.5-3.7,1.6c-0.4,0.1-0.8-0.1-1.1-0.5c-0.2-0.4-0.3-0.8-0.3-1.3c0-0.5,0.1-1,0.2-1.5c0.1-0.6,0.3-1.1,0.4-1.7
	c-1.9,2-2.8,3.1-2.9,3.2c-1.3,1.3-2.4,1.9-3.2,1.9c-0.1,0-0.2,0-0.2,0c-0.7,0-1.3-0.2-1.7-0.8c-0.4-0.6-0.6-1.2-0.5-1.9
	c-0.1-0.8,0.1-1.6,0.5-2.3c0.4-0.5,1.1-0.7,1.7-0.7c0.5-0.1,1,0.2,1.2,0.7c0.1,0.4,0.2,0.8,0.2,1.2c0,0.4,0,0.6,0.1,0.6
	c0.1,0,0.2,0.1,0.4,0c0.2,0,1.2-1,2.9-2.9s2.9-2.9,3.7-2.9c0.3,0,0.6,0.1,0.8,0.4c0.2,0.3,0.3,0.6,0.3,1c-0.1,0.7-0.3,1.3-0.5,1.9
	c-0.2,0.5-0.4,1.1-0.5,1.7c0,0.3,0,0.5,0.2,0.8c0.1,0.2,0.2,0.3,0.4,0.2c0.5,0,1.6-1,3.3-2.8c1.7-1.8,2.8-2.8,3.2-2.8
	c0.3,0,0.6,0.1,0.9,0.2c0.3,0.1,0.5,0.4,0.5,0.7c0,0.5-0.1,1-0.3,1.5c-0.3,0.7-0.5,1.5-0.8,2.2c0,0.2,0,0.5,0.1,0.7
	c0,0.1,0.2,0.2,0.4,0.2c1.2,0,2.4-0.3,3.4-0.9l3.2-2.1c0.2,0,0.4,0,0.5,0.2C91.9,108,92,108.2,91.9,108.4z M104.9,110.9
	c0,0.4-0.7,1-2.1,1.8c-1,0.6-2.1,1-3.2,1.2c-0.7,0.1-1.4-0.2-1.8-0.8c-0.4-0.6-0.6-1.3-0.5-1.9c0-0.2,0-0.5,0-0.7
	c-0.9,0.9-1.8,1.7-2.9,2.3c-0.9,0.6-1.9,0.9-2.9,1c-0.5,0-1-0.2-1.4-0.5c-0.4-0.4-0.6-0.9-0.5-1.4c0-0.2,0-0.3,0.1-0.5
	c0.2-0.9,0.5-1.8,0.9-2.6c0.1-0.1,0.4-0.8,1-2.1c0.2-0.4,0.6-0.8,1-1c0.3-0.2,0.7-0.3,1.1-0.2c0.3,0.1,0.4,0.3,0.4,0.7v0.4
	c-0.1,0.7-0.4,1.3-0.7,1.9c-0.3,0.6-0.5,1.3-0.7,1.9c0,0.2,0.1,0.3,0.4,0.3c0.6,0,1.1-0.2,1.7-0.5c0.8-0.4,1.5-0.8,2.1-1.3
	c0.5-0.4,0.9-0.9,1.3-1.4c0.5-0.6,0.8-0.9,1.1-0.9c0.4,0,0.7,0.1,1,0.3c0.2,0.2,0.3,0.4,0.3,0.7c0,0.2,0,0.4-0.1,0.6
	c-0.1,0.2-0.2,0.4-0.3,0.6c-0.2,0.3-0.3,0.7-0.3,1.1c-0.1,0.5-0.1,0.9-0.1,1.4c0,0.3,0.1,0.4,0.3,0.4c0.7,0,1.5-0.2,2.2-0.4
	c0.8-0.3,1.7-0.6,2.6-0.9C104.8,110.4,104.9,110.6,104.9,110.9L104.9,110.9z M116.7,111.5c0,0.3-0.2,0.6-0.4,0.8
	c-0.4,0.2-0.8,0.3-1.2,0.4c-0.7,0.2-1.5,0.3-2.2,0.4c-0.8,0.1-1.6,0.2-2.4,0.2c-0.4,0.2-0.8,0.4-1.3,0.4c-0.5,0.1-1,0.1-1.4,0.1
	c-0.4,0-0.8,0-1.1-0.1c-0.3-0.1-0.6-0.2-0.9-0.4c-0.4,1.1-0.9,2.4-1.3,3.9c-0.5,1.9-1,3.8-1.5,5.6c-0.2,0.5-0.5,0.9-0.9,1.2
	c-0.3,0.3-0.8,0.5-1.2,0.5c-0.3,0-0.6-0.2-0.6-0.5c-0.1-0.3-0.2-0.7-0.2-1.1c0.1-1.2,0.5-2.3,1-3.4c0.7-1.6,1.3-3.1,2-4.7
	c0.8-1.7,1.4-3.4,2-5.2c0.2-0.6,0.3-1.2,0.3-1.8c0.1-0.7,0.1-1.1,0.1-1.3c0-0.3,0-0.6,0-0.9s0-0.6,0-0.9c0-0.4,0.2-0.8,0.4-1.1
	c0.3-0.4,0.7-0.6,1.2-0.6c0.3,0,0.7,0.2,0.8,0.5c0.2,0.4,0.3,0.9,0.2,1.3c0,0.2,0,0.4,0,0.6c0,0.2-0.1,0.4-0.1,0.5
	c0.7-0.8,1.1-1.3,1.4-1.5c0.6-0.6,1.3-0.9,2.1-0.9c0.7,0,1.3,0.4,1.6,1c0.4,0.7,0.6,1.4,0.6,2.2c0,1-0.2,1.9-0.5,2.8
	c-0.2,0.7-0.6,1.3-0.9,1.9c0.1,0,0.3,0,0.4,0c0.5,0,1.1-0.1,1.6-0.2c0.7-0.1,1.4-0.3,2.1-0.4C116.5,110.8,116.7,111,116.7,111.5
	L116.7,111.5z M110.9,107.1c0-0.5-0.2-0.8-0.7-0.8c-0.4,0-0.9,0.3-1.2,0.6c-0.4,0.3-0.7,0.7-0.9,1.2c0.4,0,0.9,0.1,1.2,0.3
	c0.4,0.2,0.8,0.6,1.1,1c0.1-0.3,0.1-0.5,0.2-0.8C110.8,108.1,110.9,107.6,110.9,107.1L110.9,107.1z M109.2,111.2
	c-0.1-0.3-0.3-0.5-0.4-0.7c-0.2-0.2-0.3-0.3-0.4-0.3c-0.5,0-0.8,0.2-0.8,0.6c0,0.2,0.1,0.4,0.2,0.5c0.2,0.2,0.4,0.2,0.6,0.2
	c0.1,0,0.2,0,0.3,0C108.9,111.4,109.1,111.3,109.2,111.2L109.2,111.2z M142.7,95.8c0,1-0.9,3-2.6,6.1c-1.2,2.2-1.8,3.3-1.9,3.4
	c1-0.1,2-0.2,2.9-0.2c0.6,0,0.9,0.2,0.9,0.6c0,0.4-0.5,0.8-1.5,1l-3,0.7c-0.4,1.4-0.7,2.8-1.1,4.1c-0.6,1.5-1.3,2.3-2.2,2.3
	c-0.9,0-1.3-0.4-1.3-1.2c0-0.3,0.1-0.6,0.2-0.9c0.2-0.3,0.5-0.5,0.7-0.8c0.4-0.5,0.7-1.1,0.9-1.7c0.2-0.7,0.4-1.3,0.5-1.7
	c-0.3,0.1-0.9,0.2-1.8,0.3s-1.5,0.2-1.9,0.3c-0.2,1.2-0.6,2.4-1,3.6c-0.6,1.4-1.2,2.1-1.7,2.1c-0.9,0-1.4-0.6-1.4-1.8
	c0.2-0.7,0.4-1.3,0.8-1.9c0.3-0.5,0.5-1,0.8-1.5c-0.9,0.2-1.9,0.3-2.8,0.5c-0.4,0-0.7-0.1-1-0.3c-0.3-0.3-0.4-0.6-0.4-1
	c0-0.5,0.1-1,0.4-1.4c0.2-0.3,0.5-0.5,0.8-0.6c0.6,0,1.2,0,2,0.1c0.8,0.1,1.4,0.1,2,0.1c0.5-1.2,1-2.6,1.6-4.1
	c0.5-1.3,1-2.5,1.4-3.5c0.6-1.4,0.9-2.3,1.1-2.8c0.2-0.6,0.5-1.1,0.8-1.7c0.3-0.5,0.8-0.8,1.4-0.8c0.4,0,0.6,0.1,0.7,0.3
	c0.1,0.4,0.2,0.8,0.1,1.3c-0.2,0.7-0.4,1.3-0.8,1.8c-0.9,1.6-1.5,2.8-1.9,3.6s-0.8,1.7-1.2,2.8c-0.4,1.1-0.8,2-1,3
	c0.7,0,1.3,0,1.8-0.1c0.8-0.1,1.5-0.2,2-0.2c0.1-0.3,1-2.2,2.5-5.7c1.1-2.5,1.8-4.1,2.1-4.8c0.1-0.3,0.3-0.6,0.6-0.8
	c0.2-0.2,0.4-0.3,0.7-0.3c0.3,0,0.5,0.2,0.6,0.4C142.7,94.9,142.8,95.4,142.7,95.8z M156.7,110.9c0,0.4-0.7,1-2.1,1.8
	c-1,0.6-2.1,1-3.2,1.2c-0.7,0.1-1.4-0.2-1.8-0.8c-0.4-0.6-0.6-1.3-0.5-1.9c0-0.2,0-0.5,0-0.7c-0.9,0.9-1.8,1.7-2.9,2.3
	c-0.9,0.6-1.9,0.9-2.9,0.9c-0.5,0-1-0.2-1.4-0.5c-0.4-0.4-0.6-0.9-0.5-1.4c0-0.2,0-0.3,0.1-0.5c0.2-0.9,0.5-1.8,0.9-2.6
	c0.1-0.1,0.4-0.8,1-2.1c0.2-0.4,0.6-0.8,1-1c0.3-0.2,0.7-0.3,1.1-0.2c0.3,0.1,0.4,0.3,0.4,0.7v0.4c-0.1,0.7-0.4,1.3-0.7,1.9
	c-0.3,0.6-0.5,1.3-0.7,1.9c0,0.2,0.1,0.3,0.4,0.3c0.6,0,1.1-0.2,1.7-0.5c0.8-0.4,1.5-0.8,2.1-1.3c0.5-0.4,0.9-0.9,1.3-1.4
	c0.5-0.6,0.8-0.9,1.1-0.9c0.4,0,0.7,0.1,1,0.3c0.2,0.2,0.3,0.4,0.3,0.7c0,0.2,0,0.4-0.1,0.6c-0.1,0.2-0.2,0.4-0.3,0.6
	c-0.2,0.3-0.3,0.7-0.3,1.1c-0.1,0.5-0.1,0.9-0.1,1.4c0,0.3,0.1,0.4,0.3,0.4c0.7,0,1.5-0.2,2.2-0.4c0.8-0.3,1.7-0.6,2.6-0.9
	C156.7,110.4,156.8,110.6,156.7,110.9L156.7,110.9z M170.5,108.2c0,0.5-0.8,1.5-2.5,2.9c-1.9,1.6-3.5,2.4-4.9,2.4
	c-0.9,0.1-1.8-0.3-2.3-1c-0.4-0.6-0.6-1.2-0.7-1.9c-0.8,0.8-1.4,1.3-1.9,1.7c-0.9,0.8-1.5,1.2-1.9,1.2c-0.3,0-0.7-0.1-0.8-0.4
	c-0.2-0.3-0.2-0.7-0.2-1.1v-0.4c0.3-1.5,0.8-3,1.4-4.4c0.9-2.4,1.7-3.6,2.1-3.6c0.5,0,0.9,0.1,1,0.3c0.2,0.3,0.2,0.6,0.2,0.9
	c-0.3,1.1-0.7,2.1-1.2,3.1l-0.9,2.1c1.9-1.9,3.5-3.4,4.7-4.5c1.3-1.2,2.3-1.8,3-1.8c0.4-0.1,0.8,0.1,1,0.4c0.2,0.4,0.3,0.8,0.2,1.3
	c0,0.7-0.9,1.5-2.6,2.3c-1,0.4-1.9,0.9-2.7,1.6c0.2,0.5,0.4,0.9,0.8,1.3c0.3,0.5,0.9,0.7,1.4,0.7c1-0.1,2-0.5,2.9-1.2
	c1-0.8,2-1.7,3.1-2.5c0.2,0,0.4,0.1,0.5,0.2C170.5,107.8,170.5,108,170.5,108.2L170.5,108.2z M180,108.5c0,0.5-0.3,0.9-0.8,1.1
	c-0.5,0.3-1,0.5-1.6,0.5c-0.4,0-0.7-0.1-1.1-0.2c-0.4-0.1-0.7-0.3-1-0.5c-0.9,1.1-1.7,2.3-2.5,3.4c-0.8,0.9-1.9,1.4-3,1.5
	c-0.6,0-1.2-0.2-1.7-0.6c-0.6-0.4-0.9-1.1-0.9-1.9c0-1.5,0.9-3,2.6-4.5c1.5-1.3,2.6-1.9,3.4-1.9c0.9-0.1,1.8,0.2,2.5,0.7
	c0.4,0.4,0.5,1,0.5,1.6c0.2,0.2,0.5,0.3,0.8,0.4c0.3,0.1,0.5,0.1,0.8,0.2c0.3,0,0.6-0.1,0.9-0.2c0.2-0.1,0.5-0.1,0.7-0.2
	C179.8,107.9,180,108.1,180,108.5L180,108.5z M173.4,109.4c0-0.5-0.1-0.8-0.3-0.9c-0.4-0.1-1,0.2-1.7,1c-0.7,0.8-1.1,1.3-1.1,1.6
	c0,0.2,0.1,0.4,0.1,0.5c0.1,0.2,0.2,0.3,0.4,0.3c0.7-0.1,1.3-0.4,1.7-0.9C173,110.6,173.3,110.1,173.4,109.4L173.4,109.4z
	 M195.8,108.4c0,0.5-1,1.4-3,2.9c-2.2,1.6-3.9,2.3-5.2,2.3c-0.7,0.1-1.4-0.2-1.9-0.6c-0.3-0.4-0.5-0.9-0.4-1.3
	c0-0.4,0.1-0.7,0.3-1.1c0-0.1,0.2-0.4,0.4-1.1l-1.8,2.3c-0.9,1.1-2.2,1.8-3.7,1.9c-0.7,0-1.3-0.2-1.8-0.7c-0.5-0.5-0.8-1.1-0.7-1.8
	c-0.1-0.8,0.1-1.6,0.5-2.3c0.4-0.5,1-0.8,1.7-0.7c0.5-0.1,1,0.2,1.2,0.7c0.1,0.4,0.2,0.8,0.2,1.2c0,0.3,0,0.5,0.1,0.6
	c0.2,0.1,0.4,0.1,0.5,0.1c0.6,0,1.6-1,3.2-3.1s2.6-3.1,3-3.1c0.4,0,0.7,0.1,1,0.3c0.3,0.2,0.4,0.5,0.4,0.9c-0.2,0.8-0.5,1.6-0.9,2.4
	c-0.4,0.7-0.7,1.4-0.9,2.1c0,0.2,0,0.4,0.1,0.7c0.1,0.2,0.2,0.3,0.4,0.2c1.2-0.1,2.3-0.4,3.3-1l3.5-2.1
	C195.6,107.8,195.8,108,195.8,108.4L195.8,108.4z M205.2,108.5c0,0.5-0.3,0.9-0.8,1.1c-0.5,0.3-1,0.5-1.6,0.5
	c-0.4,0-0.7-0.1-1.1-0.2c-0.4-0.1-0.7-0.3-1-0.5c-0.9,1.1-1.7,2.3-2.5,3.4c-0.8,0.9-1.9,1.4-3,1.5c-0.6,0-1.2-0.2-1.7-0.6
	c-0.6-0.4-0.9-1.1-0.9-1.9c0-1.5,0.9-3,2.6-4.5c1.5-1.3,2.6-1.9,3.4-1.9c0.9-0.1,1.8,0.2,2.5,0.7c0.4,0.4,0.5,1,0.5,1.6
	c0.2,0.2,0.5,0.3,0.8,0.4c0.3,0.1,0.5,0.1,0.8,0.2c0.3,0,0.6-0.1,0.9-0.2c0.2-0.1,0.5-0.1,0.7-0.2
	C205,107.9,205.2,108.1,205.2,108.5L205.2,108.5z M198.7,109.4c0-0.5-0.1-0.8-0.3-0.9c-0.4-0.1-1,0.2-1.7,1
	c-0.7,0.8-1.1,1.3-1.1,1.6c0,0.2,0.1,0.4,0.1,0.5c0.1,0.2,0.2,0.3,0.4,0.3c0.7-0.1,1.3-0.4,1.7-0.9
	C198.2,110.6,198.6,110.1,198.7,109.4L198.7,109.4z M215.9,92.5c-0.1,1.2-0.5,2.4-1,3.4c-0.8,1.6-1.6,3.2-2.6,4.7
	c-0.9,1.4-2,3.1-3.3,5.1c0.3,0.2,0.6,0.6,0.7,1c0.2,0.5,0.2,1,0.2,1.5c0,0.2,0,0.5-0.1,0.7c0.4,0,0.8,0,1.2-0.1
	c0.4-0.1,0.9-0.2,1.3-0.4c0.4-0.2,0.8-0.5,1.2-0.7c0.3-0.3,0.7-0.4,1.1-0.5c0.3,0,0.5,0.1,0.7,0.3c0.2,0.2,0.2,0.4,0.2,0.7
	c0,0.6-0.8,1.3-2.4,2.2c-0.6,0.3-1.3,0.5-2,0.6c-0.6,0.1-1.3,0.2-2.1,0.3c-0.3,1-0.7,2-1.1,2.9c-0.4,0.9-1.2,1.5-2.2,1.6
	c-0.5,0-1.1-0.1-1.6-0.3c-0.5-0.2-0.8-0.8-0.8-1.3c0-1.3,0.3-2.7,0.7-3.9c0.4-1.2,0.9-2.7,1.7-4.6c0.3-0.8,0.7-1.8,1.2-2.9
	c1.2-3.1,1.8-4.7,1.9-4.9c0.6-1.7,1.5-3.3,2.5-4.8c0.6-1.1,1.8-1.8,3-1.9c0.5,0,0.9,0.1,1.2,0.4C215.7,91.7,215.9,92.1,215.9,92.5
	L215.9,92.5z M212.7,96.2c0-0.2-0.1-0.4-0.3-0.5c0,0-0.1,0-0.1,0c-0.3,0-0.8,0.9-1.6,2.6c-0.6,1.4-1.2,2.8-1.7,4.2
	c0.7-0.9,1.4-2.1,2.3-3.4C211.9,98.2,212.4,97.2,212.7,96.2L212.7,96.2z M207.1,110.7c0.1-0.2,0.1-0.4,0-0.6
	c-0.1-0.1-0.2-0.2-0.3-0.2c-0.8,0.2-1.3,0.8-1.3,1.6c0,0.2,0,0.3,0,0.5c0,0.2,0,0.4,0.1,0.6c0,0.1,0.1,0.2,0.3,0.1c0,0,0,0,0,0
	c0.4-0.1,0.7-0.3,0.8-0.7C206.9,111.6,207,111.2,207.1,110.7L207.1,110.7z"/>
</svg>
