<svg xmlns="http://www.w3.org/2000/svg" width="15.068" height="11.301" viewBox="0 0 15.068 11.301">
  <g id="Group_73511" data-name="Group 73511" transform="translate(-2113 3558)">
    <path id="Path_90457" data-name="Path 90457" d="M13.185,3H1.884A1.884,1.884,0,0,0,0,4.884v7.534A1.884,1.884,0,0,0,1.884,14.3h11.3a1.884,1.884,0,0,0,1.884-1.884V4.884A1.884,1.884,0,0,0,13.185,3Zm.628,9.418a.628.628,0,0,1-.628.628H1.884a.628.628,0,0,1-.628-.628V4.884a.628.628,0,0,1,.628-.628h11.3a.628.628,0,0,1,.628.628Z" transform="translate(2113 -3561)" fill="#15dd95"/>
    <path id="Path_90458" data-name="Path 90458" d="M4.628,8.256H5.884A.628.628,0,1,0,5.884,7H4.628a.628.628,0,1,0,0,1.256Zm3.767,0H9.651A.628.628,0,1,0,9.651,7H8.395a.628.628,0,1,0,0,1.256ZM13.418,7H12.162a.628.628,0,1,0,0,1.256h1.256a.628.628,0,1,0,0-1.256ZM6.511,10.139a.628.628,0,0,0-.628-.628H4.628a.628.628,0,1,0,0,1.256H5.884A.628.628,0,0,0,6.511,10.139Zm1.884.628H9.651a.628.628,0,1,0,0-1.256H8.395a.628.628,0,1,0,0,1.256Zm5.023-1.256H12.162a.628.628,0,1,0,0,1.256h1.256a.628.628,0,1,0,0-1.256Zm-1.256,2.511H5.884a.628.628,0,0,0,0,1.256h6.278a.628.628,0,0,0,0-1.256Z" transform="translate(2111.421 -3562.489)" fill="#15dd95"/>
  </g>
</svg>
