<svg xmlns="http://www.w3.org/2000/svg" width="18.993" height="19.001" viewBox="0 0 18.993 19.001">
  <path id="all-messages" d="M19.653,18.308a6.639,6.639,0,0,0-2.6-10.025,7.592,7.592,0,1,0-13.46,5.966L2.276,15.557a.954.954,0,0,0,.673,1.622h5.4a6.639,6.639,0,0,0,5.985,3.8h5.694a.954.954,0,0,0,.673-1.622ZM7.693,14.334a6.289,6.289,0,0,0,.076.949H5.238l.332-.323a.949.949,0,0,0,0-1.346A5.625,5.625,0,0,1,3.9,9.591,5.694,5.694,0,0,1,9.6,3.9a5.635,5.635,0,0,1,5.359,3.8H14.34A6.639,6.639,0,0,0,7.7,14.333Zm10,4.743.047.047h-3.4A4.743,4.743,0,1,1,17.7,17.739a.928.928,0,0,0,0,1.337Z" transform="translate(-1.979 -1.975)" fill="#515867"/>
</svg>
