<svg xmlns="http://www.w3.org/2000/svg" width="23" height="23" viewBox="0 0 23 23">
  <g id="Group_74647" data-name="Group 74647" transform="translate(-362 -472)">
    <circle id="Ellipse_11932" data-name="Ellipse 11932" cx="11.5" cy="11.5" r="11.5" transform="translate(362 472)" fill="#15dd95"/>
    <g id="confetti" transform="translate(364.97 475.465)">
      <path id="Path_90978" data-name="Path 90978" d="M8.051,6.185,10.175,8.31a13.124,13.124,0,0,1,1.181,1.274,1.5,1.5,0,0,1,.357,1.259.46.46,0,1,1-.894-.211c.019-.08.016-.208-.2-.5a12.85,12.85,0,0,0-1.12-1.2l-2.07-2.07a12.853,12.853,0,0,0-1.2-1.12c-.292-.217-.42-.22-.5-.2s-.193.079-.358.4A12.851,12.851,0,0,0,4.8,7.482L3.765,10.588a15.791,15.791,0,0,0-.563,1.9c-.079.442-.005.564.052.621s.18.131.621.052a15.782,15.782,0,0,0,1.9-.563L8.878,11.56a.459.459,0,0,1,.291.872L6.025,13.48a16.016,16.016,0,0,1-1.989.583A1.529,1.529,0,0,1,2.6,13.756,1.529,1.529,0,0,1,2.3,12.324a16.021,16.021,0,0,1,.583-1.989l1.06-3.18a13.126,13.126,0,0,1,.611-1.626,1.5,1.5,0,0,1,.966-.882A1.5,1.5,0,0,1,6.777,5,13.126,13.126,0,0,1,8.051,6.185Zm3.658-2.507a.459.459,0,0,1,.36.541l-.088.441a1.725,1.725,0,0,1-1.146,1.3.806.806,0,0,0-.536.607l-.088.441a.459.459,0,1,1-.9-.18L9.4,6.385a1.725,1.725,0,0,1,1.146-1.3.806.806,0,0,0,.536-.607l.088-.441A.459.459,0,0,1,11.709,3.678Zm2.279,5.415a.621.621,0,0,0-.66.1,1.54,1.54,0,0,1-1.791.181l-.13-.075a.459.459,0,1,1,.459-.8l.13.075a.621.621,0,0,0,.722-.073,1.539,1.539,0,0,1,1.638-.259l.179.078a.46.46,0,0,1-.368.842Zm-6.875-7a.459.459,0,0,1,.152.632.4.4,0,0,0,.058.49l.06.06a1.384,1.384,0,0,1,.346,1.379.459.459,0,0,1-.88-.266.465.465,0,0,0-.116-.463l-.06-.06A1.318,1.318,0,0,1,6.48,2.249.459.459,0,0,1,7.112,2.1Z" transform="translate(0 -0.02)" fill="#fff" fill-rule="evenodd"/>
      <path id="Path_90979" data-name="Path 90979" d="M6.867,3.88a.329.329,0,1,1,0,.465A.329.329,0,0,1,6.867,3.88Zm3.2,1.971a.329.329,0,1,1,0,.465A.329.329,0,0,1,10.071,5.85Zm3.063,1.838a.329.329,0,1,1,0,.465A.329.329,0,0,1,13.134,7.688ZM14.3,10.847a.329.329,0,1,1,0,.465A.329.329,0,0,1,14.3,10.847Z" transform="translate(-1.751 -0.699)" fill="#fff"/>
      <path id="Path_90980" data-name="Path 90980" d="M18.447,6.183a.892.892,0,0,1-.235,1.011,1.086,1.086,0,0,1-.586.276,2.582,2.582,0,0,1-.6.025,4.395,4.395,0,0,1-.489-.061c-.063-.011-.115-.022-.151-.03l-.043-.01-.012,0h0s0,0,.073-.3l-.3.073V7.162l0-.012-.01-.043c-.008-.037-.019-.088-.03-.151a4.408,4.408,0,0,1-.061-.489,2.582,2.582,0,0,1,.025-.6,1.086,1.086,0,0,1,.276-.586.849.849,0,0,1,1.5.42A.9.9,0,0,1,18.447,6.183Zm-2.053.91-.3.073a.307.307,0,0,0,.224.224Zm.26-.26a3.773,3.773,0,0,0,.407.05,1.98,1.98,0,0,0,.458-.017.494.494,0,0,0,.26-.106c.149-.149.137-.266.112-.321s-.125-.161-.376-.16a.306.306,0,0,1-.307-.307c0-.251-.1-.349-.16-.376s-.172-.036-.321.112a.494.494,0,0,0-.106.26,1.979,1.979,0,0,0-.016.458A3.771,3.771,0,0,0,16.653,6.834Zm-3-4.046-.048.014-.013,0a.585.585,0,0,1-.243.029.568.568,0,0,1-.227-.095l-.011-.007.164-.259m.377.315-.014.048,0,.013a.584.584,0,0,0-.029.243.568.568,0,0,0,.095.227l.007.011.032.051.007.011-.025,0-.061,0H13.65a.588.588,0,0,0-.236.057.6.6,0,0,0-.18.161l-.009.011-.04.048-.006.007-.018-.047,0-.012a.476.476,0,0,0-.338-.338l-.012,0-.047-.018.007-.006.048-.04.011-.009a.6.6,0,0,0,.161-.18.587.587,0,0,0,.057-.236V2.779l0-.061,0-.025.011.007.051.032.164-.259m-.094,1.218-.016.006Zm.674-.117h0ZM13.809,2.12a.431.431,0,0,1,.513.513,2.234,2.234,0,0,1-.07.293l0,.017L14.23,3l.03.048.009.015a2.072,2.072,0,0,1,.147.257.461.461,0,0,1,0,.408.471.471,0,0,1-.329.233,2.214,2.214,0,0,1-.3.036h-.017l-.061,0H13.7l-.006.007-.04.048-.011.013a2.317,2.317,0,0,1-.2.227.468.468,0,0,1-.382.137.453.453,0,0,1-.333-.247,2.093,2.093,0,0,1-.115-.273L12.608,3.9l-.019-.05-.05-.019-.016-.006a2.086,2.086,0,0,1-.273-.115A.453.453,0,0,1,12,3.38.468.468,0,0,1,12.139,3a2.325,2.325,0,0,1,.227-.2l.013-.011.048-.04.007-.006V2.732l0-.061V2.654a2.224,2.224,0,0,1,.036-.3.471.471,0,0,1,.233-.329.461.461,0,0,1,.408,0,2.072,2.072,0,0,1,.257.146l.015.009.048.03h0L13.5,2.2l.017,0A2.24,2.24,0,0,1,13.809,2.12Z" transform="translate(-3.776)" fill="#fff" fill-rule="evenodd"/>
    </g>
  </g>
</svg>
