<svg xmlns="http://www.w3.org/2000/svg" width="15" height="15" viewBox="0 0 15 15">
  <g id="copy" transform="translate(1 1)">
    <path id="Rectangle_19946" data-name="Rectangle 19946" d="M1.045-1H7.182A2.048,2.048,0,0,1,9.227,1.045V7.182A2.048,2.048,0,0,1,7.182,9.227H1.045A2.048,2.048,0,0,1-1,7.182V1.045A2.048,2.048,0,0,1,1.045-1ZM7.182,7.864a.683.683,0,0,0,.682-.682V1.045A.683.683,0,0,0,7.182.364H1.045a.683.683,0,0,0-.682.682V7.182a.683.683,0,0,0,.682.682Z" transform="translate(4.773 4.773)" fill="#15dd95"/>
    <path id="Path_86075" data-name="Path 86075" d="M1.727,9.227H1.045A2.048,2.048,0,0,1-1,7.182V1.045A2.048,2.048,0,0,1,1.045-1H7.182A2.048,2.048,0,0,1,9.227,1.045v.682a.682.682,0,1,1-1.364,0V1.045A.683.683,0,0,0,7.182.364H1.045a.683.683,0,0,0-.682.682V7.182a.683.683,0,0,0,.682.682h.682a.682.682,0,1,1,0,1.364Z" fill="#15dd95"/>
  </g>
</svg>
