<svg xmlns="http://www.w3.org/2000/svg" xmlns:xlink="http://www.w3.org/1999/xlink" width="36" height="36" viewBox="0 0 36 36">
  <defs>
    <filter id="Path_88959" x="0" y="0" width="36" height="36" filterUnits="userSpaceOnUse">
      <feOffset dy="1" input="SourceAlpha"/>
      <feGaussianBlur stdDeviation="2" result="blur"/>
      <feFlood flood-color="#003470" flood-opacity="0.149"/>
      <feComposite operator="in" in2="blur"/>
      <feComposite in="SourceGraphic"/>
    </filter>
  </defs>
  <g id="Group_74809" data-name="Group 74809" transform="translate(-372 -1356)">
    <g transform="matrix(1, 0, 0, 1, 372, 1356)" filter="url(#Path_88959)">
      <g id="Path_88959-2" data-name="Path 88959" transform="translate(6 5)" fill="rgba(9,10,11,0.8)" stroke-linecap="round">
        <path d="M 21 23.85000038146973 L 3 23.85000038146973 C 1.428500056266785 23.85000038146973 0.1500000059604645 22.57150077819824 0.1500000059604645 21 L 0.1500000059604645 3 C 0.1500000059604645 1.428500056266785 1.428500056266785 0.1500000059604645 3 0.1500000059604645 L 21 0.1500000059604645 C 22.57150077819824 0.1500000059604645 23.85000038146973 1.428500056266785 23.85000038146973 3 L 23.85000038146973 21 C 23.85000038146973 22.57150077819824 22.57150077819824 23.85000038146973 21 23.85000038146973 Z" stroke="none"/>
        <path d="M 3 0.2999992370605469 C 1.511209487915039 0.2999992370605469 0.2999992370605469 1.511209487915039 0.2999992370605469 3 L 0.2999992370605469 21 C 0.2999992370605469 22.48879051208496 1.511209487915039 23.70000076293945 3 23.70000076293945 L 21 23.70000076293945 C 22.48879051208496 23.70000076293945 23.70000076293945 22.48879051208496 23.70000076293945 21 L 23.70000076293945 3 C 23.70000076293945 1.511209487915039 22.48879051208496 0.2999992370605469 21 0.2999992370605469 L 3 0.2999992370605469 M 3 0 L 21 0 C 22.65685081481934 0 24 1.3431396484375 24 3 L 24 21 C 24 22.65685081481934 22.65685081481934 24 21 24 L 3 24 C 1.3431396484375 24 0 22.65685081481934 0 21 L 0 3 C 0 1.3431396484375 1.3431396484375 0 3 0 Z" stroke="none" fill="#fff"/>
      </g>
    </g>
    <path id="Path_90576" data-name="Path 90576" d="M12.475,7.077v6.8H7.039v-6.8h5.436M11.456,3h-3.4l-.68.68H5V5.039h9.514V3.68H12.135Zm2.378,2.718H5.68v8.154a1.363,1.363,0,0,0,1.359,1.359h5.436a1.363,1.363,0,0,0,1.359-1.359Z" transform="translate(380.242 1363.884)" fill="#fff"/>
  </g>
</svg>
