<svg xmlns="http://www.w3.org/2000/svg" width="9.859" height="12.324" viewBox="0 0 9.859 12.324">
  <path id="document" d="M7.081,6.93H7.7A.616.616,0,1,0,7.7,5.7H7.081a.616.616,0,0,0,0,1.232Zm0,1.232a.616.616,0,0,0,0,1.232h3.7a.616.616,0,0,0,0-1.232Zm6.778-1.886a.807.807,0,0,0-.037-.166V6.055a.659.659,0,0,0-.117-.173h0l-3.7-3.7h0a.659.659,0,0,0-.173-.117.2.2,0,0,0-.055,0A.542.542,0,0,0,9.577,2H5.849A1.849,1.849,0,0,0,4,3.849v8.627a1.849,1.849,0,0,0,1.849,1.849h6.162a1.849,1.849,0,0,0,1.849-1.849v-6.2ZM10.162,4.1l1.6,1.6h-.98a.616.616,0,0,1-.616-.616Zm2.465,8.374a.616.616,0,0,1-.616.616H5.849a.616.616,0,0,1-.616-.616V3.849a.616.616,0,0,1,.616-.616H8.93V5.081A1.849,1.849,0,0,0,10.778,6.93h1.849Zm-1.849-1.849h-3.7a.616.616,0,0,0,0,1.232h3.7a.616.616,0,0,0,0-1.232Z" transform="translate(-4 -2)" fill="#15dd95"/>
</svg>
