<svg xmlns="http://www.w3.org/2000/svg" width="27.09" height="27.09" viewBox="0 0 27.09 27.09">
  <g id="Group_69790" data-name="Group 69790" transform="translate(-4333 -9944)">
    <circle id="Ellipse_11809" data-name="Ellipse 11809" cx="13.545" cy="13.545" r="13.545" transform="translate(4333 9944)" fill="#bfffe9"/>
    <g id="edit" transform="translate(4336.003 9947.394)">
      <path id="Path_86081" data-name="Path 86081" d="M15.773,6.568l-2.093-2.1a1.529,1.529,0,0,0-2.034-.053L4.763,11.3a1.529,1.529,0,0,0-.436.926L4,15.414a.762.762,0,0,0,.765.834h.069l3.188-.29a1.529,1.529,0,0,0,.926-.436L15.829,8.64a1.468,1.468,0,0,0-.053-2.071Zm-7.89,7.865-2.3.214.207-2.3,4.32-4.266,2.069,2.064Zm5.291-5.306-2.05-2.055,1.491-1.529L14.7,7.63Z" transform="translate(0 0)" fill="#15dd95"/>
    </g>
  </g>
</svg>
