<svg xmlns="http://www.w3.org/2000/svg" xmlns:xlink="http://www.w3.org/1999/xlink" width="51" height="51" viewBox="0 0 51 51">
  <defs>
    <filter id="Rectangle_26977" x="0" y="0" width="51" height="51" filterUnits="userSpaceOnUse">
      <feOffset dy="1" input="SourceAlpha"/>
      <feGaussianBlur stdDeviation="1" result="blur"/>
      <feFlood flood-opacity="0.051"/>
      <feComposite operator="in" in2="blur"/>
      <feComposite in="SourceGraphic"/>
    </filter>
  </defs>
  <g id="Group_69986" data-name="Group 69986" transform="translate(-1627 -133)">
    <g transform="matrix(1, 0, 0, 1, 1627, 133)" filter="url(#Rectangle_26977)">
      <g id="Rectangle_26977-2" data-name="Rectangle 26977" transform="translate(3 2)" fill="#fff" stroke="#d6d7d8" stroke-width="0.5" opacity="0.998">
        <rect width="45" height="45" rx="5" stroke="none"/>
        <rect x="0.25" y="0.25" width="44.5" height="44.5" rx="4.75" fill="none"/>
      </g>
    </g>
    <path id="export-file" d="M20.92,15.62a1.15,1.15,0,0,0-.21-.33l-3-3a1,1,0,0,0-1.42,1.42L17.59,15H12a1,1,0,0,0,0,2h5.59l-1.3,1.29a1,1,0,1,0,1.42,1.42l3-3a.93.93,0,0,0,.21-.33,1,1,0,0,0,0-.76ZM14,20H6a1,1,0,0,1-1-1V5A1,1,0,0,1,6,4h5V7a3,3,0,0,0,3,3h4a1.006,1.006,0,0,0,.71-1.71l-6-6a1.07,1.07,0,0,0-.28-.19h-.09L12.06,2H6A3,3,0,0,0,3,5V19a3,3,0,0,0,3,3h8a1,1,0,0,0,0-2ZM13,5.41,15.59,8H14a1,1,0,0,1-1-1Z" transform="translate(1641 146)" fill="#515867"/>
  </g>
</svg>
