<svg xmlns="http://www.w3.org/2000/svg" xmlns:xlink="http://www.w3.org/1999/xlink" width="54" height="52" viewBox="0 0 54 52">
  <defs>
    <filter id="Rectangle_28777" x="0" y="1" width="51" height="51" filterUnits="userSpaceOnUse">
      <feOffset dy="1" input="SourceAlpha"/>
      <feGaussianBlur stdDeviation="1" result="blur"/>
      <feFlood flood-opacity="0.051"/>
      <feComposite operator="in" in2="blur"/>
      <feComposite in="SourceGraphic"/>
    </filter>
    <filter id="Ellipse_11931" x="28" y="0" width="26" height="26" filterUnits="userSpaceOnUse">
      <feOffset dy="3" input="SourceAlpha"/>
      <feGaussianBlur stdDeviation="3" result="blur-2"/>
      <feFlood flood-color="#e80111" flood-opacity="0.161"/>
      <feComposite operator="in" in2="blur-2"/>
      <feComposite in="SourceGraphic"/>
    </filter>
  </defs>
  <g id="Group_73327" data-name="Group 73327" transform="translate(-1787 -136)">
    <g transform="matrix(1, 0, 0, 1, 1787, 136)" filter="url(#Rectangle_28777)">
      <g id="Rectangle_28777-2" data-name="Rectangle 28777" transform="translate(3 3)" fill="#f8f8f8" stroke="#e80111" stroke-width="0.5">
        <rect width="45" height="45" rx="5" stroke="none"/>
        <rect x="0.25" y="0.25" width="44.5" height="44.5" rx="4.75" fill="none"/>
      </g>
    </g>
    <g id="filter" transform="translate(1797.5 177) rotate(-90)">
      <path id="Path_90172" data-name="Path 90172" d="M17,11H4A1,1,0,0,1,4,9H17a1,1,0,0,1,0,2Zm9,0H22a1,1,0,0,1,0-2h4a1,1,0,0,1,0,2Z" fill="#515867"/>
      <path id="Path_90173" data-name="Path 90173" d="M19.5,13.5A3.5,3.5,0,1,1,23,10,3.5,3.5,0,0,1,19.5,13.5Zm0-5A1.5,1.5,0,1,0,21,10,1.5,1.5,0,0,0,19.5,8.5ZM26,21H13a1,1,0,0,1,0-2H26a1,1,0,0,1,0,2ZM8,21H4a1,1,0,0,1,0-2H8a1,1,0,0,1,0,2Z" fill="#515867"/>
      <path id="Path_90174" data-name="Path 90174" d="M10.5,23.5A3.5,3.5,0,1,1,14,20a3.5,3.5,0,0,1-3.5,3.5Zm0-5A1.5,1.5,0,1,0,12,20,1.5,1.5,0,0,0,10.5,18.5Z" fill="#515867"/>
    </g>
    <g transform="matrix(1, 0, 0, 1, 1787, 136)" filter="url(#Ellipse_11931)">
      <circle id="Ellipse_11931-2" data-name="Ellipse 11931" cx="4" cy="4" r="4" transform="translate(37 6)" fill="#e80111"/>
    </g>
  </g>
</svg>
