<svg xmlns="http://www.w3.org/2000/svg" width="14.8" height="18" viewBox="0 0 14.8 18"><path d="M13.485,2.289a1.388,1.388,0,0,1,1.61,1.242l.006.127V4.8h1.85A1.85,1.85,0,0,1,18.8,6.507l.005.138V15.9a1.85,1.85,0,0,1-1.712,1.845l-.138.005H15.1v1.137a1.388,1.388,0,0,1-1.489,1.384l-.126-.015L5.546,18.928a1.85,1.85,0,0,1-1.54-1.675L4,17.1V5.437A1.85,1.85,0,0,1,5.4,3.643l.146-.03ZM13.25,4.2,5.85,5.437V17.1l7.4,1.233Zm3.7,2.441H15.1V15.9h1.85ZM10.938,9.883A1.388,1.388,0,1,1,9.55,11.27,1.388,1.388,0,0,1,10.938,9.883Z" transform="translate(-4 -2.27)" fill="#515867"/></svg>