<svg xmlns="http://www.w3.org/2000/svg" width="30" height="30" viewBox="0 0 30 30">
  <g id="Group_69734" data-name="Group 69734" transform="translate(-1730 -446)">
    <g id="Rectangle_26963" data-name="Rectangle 26963" transform="translate(1730 446)" fill="#fff" stroke="#d6d7d8" stroke-linecap="round" stroke-linejoin="round" stroke-width="1">
      <rect width="30" height="30" rx="5" stroke="none"/>
      <rect x="0.5" y="0.5" width="29" height="29" rx="4.5" fill="none"/>
    </g>
    <path id="Path_88924" data-name="Path 88924" d="M5.874,8.415a3.571,3.571,0,0,1,.155-.778,3.526,3.526,0,0,1,.318-.775h0A1.2,1.2,0,1,1,7.526,5.62a3.991,3.991,0,0,1,.711-.393A4.509,4.509,0,0,1,8.973,5a2.742,2.742,0,1,0-3.1,3.409Zm.465,3.1a2.921,2.921,0,0,1,.643.085,4.083,4.083,0,0,1-.624-.86,4.153,4.153,0,0,1-.325-.775A4.331,4.331,0,0,0,2,14.288a.775.775,0,0,0,.775.772H4.487a5.493,5.493,0,0,1,.294-.775,5.881,5.881,0,0,1,.442-.775H3.673a2.775,2.775,0,0,1,2.665-2Zm5.648-5.876A1.193,1.193,0,1,1,13.17,6.932h0a3.526,3.526,0,0,1,.321.774,3.572,3.572,0,0,1,.155.775A2.742,2.742,0,1,0,10.523,5a4.06,4.06,0,0,1,.774.233,4.317,4.317,0,0,1,.694.4Zm1.48,4.324a4.153,4.153,0,0,1-.325.775,3.874,3.874,0,0,1-.635.868,2.712,2.712,0,0,1,.666-.093,2.781,2.781,0,0,1,2.665,2H14.289a5.881,5.881,0,0,1,.442.775,5.494,5.494,0,0,1,.294.775h1.7a.775.775,0,0,0,.775-.775,4.324,4.324,0,0,0-4.029-4.324ZM7.423,7.384a2.619,2.619,0,0,0-.379,1.031A2.851,2.851,0,0,0,7,8.872a2.818,2.818,0,0,0,.31,1.24,2.75,2.75,0,0,0,1.2,1.193,2.706,2.706,0,0,0,1.193.31.208.208,0,0,1,.054.06l.054-.069a2.627,2.627,0,0,0,1.179-.3,2.735,2.735,0,0,0,1.193-1.193,2.681,2.681,0,0,0,.318-1.24,2.952,2.952,0,0,0-.046-.465,2.851,2.851,0,0,0-.379-1.041,2.657,2.657,0,0,0-.589-.66,2.874,2.874,0,0,0-1.734-.62,2.975,2.975,0,0,0-.7.1,2.8,2.8,0,0,0-.984.5,2.572,2.572,0,0,0-.635.7Zm2.325.255a1.2,1.2,0,1,1-.849.35,1.2,1.2,0,0,1,.849-.35Zm3.644,6.649a4.648,4.648,0,0,0-.624-.775A4.371,4.371,0,0,0,11.079,12.5h0a3.8,3.8,0,0,0-.852-.208h0a4.068,4.068,0,0,0-.472,0h-.46a4.377,4.377,0,0,0-.852.18h0a4.371,4.371,0,0,0-1.689,1.015,4.648,4.648,0,0,0-.624.774,4.856,4.856,0,0,0-.4.775,4.3,4.3,0,0,0-.287,1.549.775.775,0,0,0,.775.774h7.087a.775.775,0,0,0,.775-.775,4.3,4.3,0,0,0-.287-1.549,4.856,4.856,0,0,0-.4-.745Zm-5.966.772a2.844,2.844,0,0,1,.775-.775,2.371,2.371,0,0,1,.612-.3,2.7,2.7,0,0,1,.775-.139H9.77a2.706,2.706,0,0,1,.775.139,3.1,3.1,0,0,1,.6.3,2.712,2.712,0,0,1,1.17,1.549H7.089a2.836,2.836,0,0,1,.341-.774Z" transform="translate(1735.252 451.207)" fill="#515867" stroke="#fff" stroke-width="0.2"/>
  </g>
</svg>
