<svg xmlns="http://www.w3.org/2000/svg" width="50" height="50" viewBox="0 0 50 50">
  <g id="Group_69785" data-name="Group 69785" transform="translate(-90 -562)">
    <circle id="Ellipse_11810" data-name="Ellipse 11810" cx="25" cy="25" r="25" transform="translate(90 562)" fill="#bfffe9"/>
    <path id="teams" d="M8.98,12.785a6.436,6.436,0,0,1,.279-1.4,6.352,6.352,0,0,1,.573-1.4h0a2.161,2.161,0,1,1,2.123-2.237,7.189,7.189,0,0,1,1.281-.709,8.125,8.125,0,0,1,1.327-.405,4.941,4.941,0,1,0-5.584,6.143Zm.837,5.584a5.263,5.263,0,0,1,1.159.153,7.357,7.357,0,0,1-1.131-1.549,7.482,7.482,0,0,1-.586-1.4A7.8,7.8,0,0,0,2,23.366a1.4,1.4,0,0,0,1.4,1.4H6.481a9.9,9.9,0,0,1,.53-1.4,10.6,10.6,0,0,1,.8-1.4H5.015a5,5,0,0,1,4.8-3.6ZM19.994,7.782a2.15,2.15,0,1,1,2.136,2.331h0a6.352,6.352,0,0,1,.573,1.4,6.435,6.435,0,0,1,.279,1.4,4.941,4.941,0,1,0-5.626-6.266,7.315,7.315,0,0,1,1.4.419,7.778,7.778,0,0,1,1.245.729Zm2.666,7.79a7.483,7.483,0,0,1-.587,1.4,6.98,6.98,0,0,1-1.145,1.563,4.886,4.886,0,0,1,1.2-.167,5.012,5.012,0,0,1,4.8,3.6H24.141a10.6,10.6,0,0,1,.8,1.4,9.9,9.9,0,0,1,.53,1.4h3.057a1.4,1.4,0,0,0,1.4-1.4,7.79,7.79,0,0,0-7.26-7.79ZM11.771,10.927a4.719,4.719,0,0,0-.684,1.857,5.137,5.137,0,0,0-.084.823,5.077,5.077,0,0,0,.559,2.234,4.955,4.955,0,0,0,2.161,2.15,4.872,4.872,0,0,0,2.15.559.377.377,0,0,1,.1.108l.1-.125a4.733,4.733,0,0,0,2.122-.54,4.928,4.928,0,0,0,2.15-2.15,4.83,4.83,0,0,0,.573-2.234,5.318,5.318,0,0,0-.084-.837,5.137,5.137,0,0,0-.684-1.871,4.788,4.788,0,0,0-1.061-1.188,5.179,5.179,0,0,0-3.128-1.117,5.36,5.36,0,0,0-1.27.181,5.054,5.054,0,0,0-1.773.893,4.635,4.635,0,0,0-1.145,1.256Zm4.188.46A2.161,2.161,0,1,1,13.8,13.548,2.161,2.161,0,0,1,15.96,11.387Zm6.566,11.98a8.376,8.376,0,0,0-1.131-1.4,7.873,7.873,0,0,0-3.043-1.829h0a6.855,6.855,0,0,0-1.535-.377h0a7.329,7.329,0,0,0-.851,0h-.829a7.886,7.886,0,0,0-1.535.324h0a7.873,7.873,0,0,0-3.043,1.829,8.376,8.376,0,0,0-1.131,1.395,8.751,8.751,0,0,0-.712,1.4A7.748,7.748,0,0,0,8.2,27.5a1.4,1.4,0,0,0,1.4,1.395H22.381a1.4,1.4,0,0,0,1.4-1.4,7.748,7.748,0,0,0-.516-2.792A8.751,8.751,0,0,0,22.526,23.366Zm-10.749,1.4a5.123,5.123,0,0,1,1.4-1.4,4.272,4.272,0,0,1,1.1-.54,4.861,4.861,0,0,1,1.4-.252H16a4.872,4.872,0,0,1,1.4.252,5.584,5.584,0,0,1,1.08.54,4.886,4.886,0,0,1,2.108,2.792H11.17a5.11,5.11,0,0,1,.615-1.4Z" transform="translate(99.04 571.068)" fill="#15dd95" stroke="#bfffe9" stroke-width="0.5"/>
  </g>
</svg>
