<svg xmlns="http://www.w3.org/2000/svg" width="14.18" height="12.19" viewBox="0 0 14.18 12.19">
  <path id="handshake" d="M8.314,2.005a.506.506,0,0,0-.386.178l-.051.037a4.629,4.629,0,0,0-4.47,1.042,4.058,4.058,0,0,0-1.231,3.73l-.016.015-.681.645a1.368,1.368,0,0,0,0,2.011,1.555,1.555,0,0,0,1.277.4,1.4,1.4,0,0,0,.392.646,1.537,1.537,0,0,0,.952.413,1.383,1.383,0,0,0,.436.9,1.537,1.537,0,0,0,.952.413,1.384,1.384,0,0,0,.436.9A1.568,1.568,0,0,0,7.9,13.46l.335.317a1.573,1.573,0,0,0,2.136,0,1.39,1.39,0,0,0,.438-.9,1.537,1.537,0,0,0,.945-.412,1.384,1.384,0,0,0,.436-.9,1.536,1.536,0,0,0,.934-.411,1.4,1.4,0,0,0,.4-.678,1.554,1.554,0,0,0,1.254-.4,1.368,1.368,0,0,0,0-2.011l-.6-.57.115-.426a3.882,3.882,0,0,0-.375-2.931,4.292,4.292,0,0,0-3.748-2.131H9.136q-.07,0-.14,0Zm4.439,5.541.494.486a.505.505,0,0,0,.1.078l.692.654a.419.419,0,0,1,0,.615.479.479,0,0,1-.651,0L12.233,8.285a.543.543,0,0,0-.738,0l-.011.011a.475.475,0,0,0,0,.7l.9.853a.419.419,0,0,1,0,.616.48.48,0,0,1-.6.041.544.544,0,0,0-.685.047.474.474,0,0,0-.043.648.418.418,0,0,1-.04.573.481.481,0,0,1-.609.035.544.544,0,0,0-.69.038.474.474,0,0,0-.045.652.425.425,0,0,1-.04.583.487.487,0,0,1-.661,0l-.326-.308.085-.08a1.368,1.368,0,0,0,0-2.011,1.537,1.537,0,0,0-.952-.412,1.383,1.383,0,0,0-.436-.9,1.537,1.537,0,0,0-.952-.413,1.383,1.383,0,0,0-.436-.9,1.555,1.555,0,0,0-1.277-.4,1.4,1.4,0,0,0-.392-.646,1.547,1.547,0,0,0-1.119-.415,3.112,3.112,0,0,1,.977-2.632,3.509,3.509,0,0,1,2.619-.937l-1.112.8a1.527,1.527,0,0,0-.3,2.212,1.665,1.665,0,0,0,2.255.3l1.366-.985h1.462Zm-6.506-2.9L8.5,3.02H9l.1,0h1.073A3.277,3.277,0,0,1,13.032,4.64,2.869,2.869,0,0,1,13.338,6.7L11.091,4.486a.508.508,0,0,0-.356-.146H8.811a.508.508,0,0,0-.3.1l-1.5,1.081a.65.65,0,0,1-.87-.118A.512.512,0,0,1,6.247,4.647Zm1.1,6.729a.479.479,0,0,1,.649,0,.419.419,0,0,1,0,.615l-.681.645a.479.479,0,0,1-.651,0,.419.419,0,0,1,0-.615Zm-.738-.7-.683.646a.479.479,0,0,1-.651,0,.418.418,0,0,1-.01-.605l.011-.01.681-.644.011-.01a.479.479,0,0,1,.64.01A.419.419,0,0,1,6.607,10.679ZM5.217,9.367l-.681.645-.011.01a.479.479,0,0,1-.64-.01.419.419,0,0,1,0-.615l.681-.645a.479.479,0,0,1,.651,0,.418.418,0,0,1,.01.605ZM3.549,8.32l-.681.645a.479.479,0,0,1-.651,0,.419.419,0,0,1,0-.615L2.9,7.7a.479.479,0,0,1,.651,0A.419.419,0,0,1,3.549,8.32Z" transform="translate(-1.039 -2.005)" fill="#15dd95"/>
</svg>
