<svg id="Layer_2" data-name="Layer 2" xmlns="http://www.w3.org/2000/svg" width="14" height="14.002" viewBox="0 0 14 14.002">
  <path id="Path_86156" data-name="Path 86156" d="M15.5,8h-5a.5.5,0,0,1-.5-.547C10.254,4.739,11.279,2,13,2s2.744,2.739,3,5.454A.5.5,0,0,1,15.5,8ZM11.057,7h3.881C14.608,4.515,13.706,3,13,3s-1.611,1.515-1.941,4Z" transform="translate(-5.998 -1.999)" fill="#515867"/>
  <path id="Path_86157" data-name="Path 86157" d="M15.986,7.382A7.113,7.113,0,0,0,9,2,7.114,7.114,0,0,0,2.014,7.382.5.5,0,0,0,2.5,8h6v7H7a.5.5,0,1,0,0,1h4a.5.5,0,1,0,0-1H9.5V8h6a.5.5,0,0,0,.486-.618ZM3.172,7A6.141,6.141,0,0,1,9,3a6.141,6.141,0,0,1,5.829,4Z" transform="translate(-2 -1.999)" fill="#515867"/>
</svg>
