<svg id="Group_69803" data-name="Group 69803" xmlns="http://www.w3.org/2000/svg" width="25" height="25" viewBox="0 0 25 25">
  <path id="Path_86058" data-name="Path 86058" d="M12.5,0A12.5,12.5,0,1,0,25,12.5,12.5,12.5,0,0,0,12.5,0Z" fill="#f8f8f8"/>
  <path id="Path_86059" data-name="Path 86059" d="M17.316,9.778a1.06,1.06,0,0,1,.528,1.053,1.144,1.144,0,0,1-.741,1.133,1.143,1.143,0,0,1,.139.853,1.558,1.558,0,0,1-1.05,1.078.83.83,0,0,1,.023.969c-.289.461-.541.636-1.653.636H10.031c-1.544,0-2.344-.853-2.344-1.562V10.289C7.687,8.367,9.98,6.734,9.98,5.4L9.814,3.734A.7.7,0,0,1,9.9,3.312,1.48,1.48,0,0,1,10.9,3a1.753,1.753,0,0,1,.834.192A2.532,2.532,0,0,1,12.875,5.6a21.827,21.827,0,0,1-.734,2.131,15.723,15.723,0,0,1,2.936-.311c1.658-.009,2.733.3,2.733,1.316A2.08,2.08,0,0,1,17.316,9.778ZM3.937,9.25h1.25a.937.937,0,0,1,.937.937v5.937a.937.937,0,0,1-.938.938H3.938A.937.937,0,0,1,3,16.125V10.188A.937.937,0,0,1,3.937,9.25Z" transform="translate(2.078 2.469)" fill="#d6d7d8"/>
</svg>
