<svg xmlns="http://www.w3.org/2000/svg" width="27.09" height="27.09" viewBox="0 0 27.09 27.09">
  <g id="Group_69789" data-name="Group 69789" transform="translate(-4332.91 -9892)">
    <circle id="Ellipse_1525" data-name="Ellipse 1525" cx="13.545" cy="13.545" r="13.545" transform="translate(4332.91 9892)" fill="#bfffe9"/>
    <path id="star-shape" d="M14.75,7.047A.637.637,0,0,0,14.2,6.62l-3.627-.529L8.95,2.8A.637.637,0,0,0,7.8,2.8L6.177,6.084,2.55,6.62A.628.628,0,0,0,2.194,7.69L4.826,10.24l-.637,3.62a.637.637,0,0,0,.924.682l3.263-1.7,3.251,1.708a.593.593,0,0,0,.293.076.641.641,0,0,0,.631-.758l-.637-3.62L14.546,7.7A.637.637,0,0,0,14.75,7.047ZM10.83,9.6a.637.637,0,0,0-.185.567l.459,2.671-2.4-1.275a.637.637,0,0,0-.6,0l-2.4,1.275.459-2.671A.637.637,0,0,0,5.986,9.6L4.074,7.684,6.757,7.3a.637.637,0,0,0,.484-.351L8.376,4.516l1.2,2.435a.637.637,0,0,0,.484.351l2.683.389Z" transform="translate(4337.774 9897.016)" fill="#15dd95"/>
  </g>
</svg>
