<svg xmlns="http://www.w3.org/2000/svg" width="15.646" height="15.646" viewBox="0 0 15.646 15.646">
  <path id="Union_4" data-name="Union 4" d="M16516.736,20307.645a1.746,1.746,0,0,1-1.738-1.736v-10.434a1.741,1.741,0,0,1,1.738-1.738h.871v1.738h2.609v-1.738h5.213v1.738h2.609v-1.738h.867a1.737,1.737,0,0,1,1.738,1.738v10.434a1.742,1.742,0,0,1-1.738,1.736Zm0-1.736h12.17v-6.953h-12.17Zm9.459-2.584a1,1,0,0,1-1-1v-1a1,1,0,0,1,1-1h1a1,1,0,0,1,1,1v1a1,1,0,0,1-1,1Zm-4,0a1,1,0,0,1-1-1v-1a1,1,0,0,1,1-1h1a1,1,0,0,1,1,1v1a1,1,0,0,1-1,1Zm-4,0a1,1,0,0,1-1-1v-1a1,1,0,0,1,1-1h1a1,1,0,0,1,1,1v1a1,1,0,0,1-1,1Zm7.676-8.283V20292h1.732v3.043Zm-7.828,0V20292h1.742v3.043Z" transform="translate(-16514.998 -20291.998)" fill="#515867"/>
</svg>
