<svg xmlns="http://www.w3.org/2000/svg" width="30" height="30" viewBox="0 0 30 30">
  <g id="Group_69787" data-name="Group 69787" transform="translate(-480 -140)">
    <rect id="Rectangle_26472" data-name="Rectangle 26472" width="30" height="30" rx="3" transform="translate(480 140)" fill="#e3fff5"/>
    <path id="write" d="M14.469,291.182a2.451,2.451,0,0,0-1.735.713l-.945.923H2.806A2.293,2.293,0,0,0,.529,295.1v10.2a2.293,2.293,0,0,0,2.277,2.277h10.2a2.293,2.293,0,0,0,2.277-2.277v-8.983l.923-.942a2.454,2.454,0,0,0-1.741-4.2Zm0,1.621a.831.831,0,0,1,.583.248.806.806,0,0,1,0,1.162l-.006.006-6.662,6.8h-1.3v-1.3l6.8-6.662.006-.006a.821.821,0,0,1,.579-.248ZM2.806,294.457h7.312L5.691,298.8a.821.821,0,0,0-.242.58v2.463a.819.819,0,0,0,.818.818H8.731a.814.814,0,0,0,.579-.242l4.338-4.425V305.3a.62.62,0,0,1-.638.638H2.806a.62.62,0,0,1-.638-.638V295.1a.62.62,0,0,1,.638-.635Z" transform="translate(486.268 -144.378)" fill="#15dd95"/>
  </g>
</svg>
