<svg xmlns="http://www.w3.org/2000/svg" width="14.895" height="14.896" viewBox="0 0 14.895 14.896">
  <path id="pin" d="M14.7,4.275,10.622.194a.645.645,0,0,0-.923,0,3.1,3.1,0,0,0-.777,2.85L7.076,4.89A5.526,5.526,0,0,0,1.522,5.975a.645.645,0,0,0,0,.923L4.307,9.683.194,13.8a.645.645,0,0,0,0,.923.7.7,0,0,0,.453.178A.639.639,0,0,0,1.1,14.7l4.113-4.113L8,13.374a.626.626,0,0,0,.907,0A5.53,5.53,0,0,0,9.99,7.821l1.846-1.846a3.115,3.115,0,0,0,2.85-.777.632.632,0,0,0,.016-.923Zm-2.736.356a.645.645,0,0,0-.729.13L8.808,7.189a.656.656,0,0,0-.146.7A5.776,5.776,0,0,1,9,9.553a3.868,3.868,0,0,1-.583,2.4L5.667,9.229,2.915,6.477a4.721,4.721,0,0,1,4.064-.243.652.652,0,0,0,.712-.146L10.12,3.659a.645.645,0,0,0,.13-.729,1.488,1.488,0,0,1,0-1.263l2.979,2.979a1.555,1.555,0,0,1-1.263-.016ZM8.128,8.145a2.669,2.669,0,0,1,.21,1.02.56.56,0,0,1-.567.551H7.756a.574.574,0,0,1-.551-.583A1.664,1.664,0,0,0,7.092,8.6a.557.557,0,0,1,.291-.745.565.565,0,0,1,.745.291Z" fill="#15dd95"/>
</svg>
