<svg xmlns="http://www.w3.org/2000/svg" width="30" height="30" viewBox="0 0 30 30">
  <g id="Group_69538" data-name="Group 69538" transform="translate(-16617 19539)">
    <path id="Path_88454" data-name="Path 88454" d="M5,0H25a5,5,0,0,1,5,5V25a5,5,0,0,1-5,5H5a5,5,0,0,1-5-5V5A5,5,0,0,1,5,0Z" transform="translate(16617 -19539)" fill="#15dd95"/>
    <path id="pin" d="M13.817,4.017,9.982.183a.606.606,0,0,0-.867,0,2.908,2.908,0,0,0-.73,2.678L6.65,4.6A5.193,5.193,0,0,0,1.43,5.615a.606.606,0,0,0,0,.867L4.048,9.1.183,12.965a.606.606,0,0,0,0,.867A.654.654,0,0,0,.609,14a.6.6,0,0,0,.426-.183L4.9,9.952l2.617,2.617a.588.588,0,0,0,.852,0A5.2,5.2,0,0,0,9.389,7.35l1.735-1.735a2.928,2.928,0,0,0,2.678-.73.594.594,0,0,0,.015-.867Zm-2.572.335a.606.606,0,0,0-.685.122L8.278,6.756a.617.617,0,0,0-.137.654,5.428,5.428,0,0,1,.32,1.567,3.635,3.635,0,0,1-.548,2.252L5.326,8.673,2.739,6.087a4.436,4.436,0,0,1,3.819-.228.613.613,0,0,0,.67-.137L9.51,3.439a.606.606,0,0,0,.122-.685,1.4,1.4,0,0,1,0-1.187l2.8,2.8a1.461,1.461,0,0,1-1.187-.015Zm-3.606,3.3a2.508,2.508,0,0,1,.2.959A.526.526,0,0,1,7.3,9.13H7.289a.539.539,0,0,1-.517-.548,1.564,1.564,0,0,0-.107-.5.524.524,0,0,1,.274-.7.531.531,0,0,1,.7.274Z" transform="translate(16625.002 -19531)" fill="#fff"/>
  </g>
</svg>
