<svg xmlns="http://www.w3.org/2000/svg" width="14" height="14" viewBox="0 0 14 14">
  <path id="multiple-file" d="M14.32,16.5H3.68A1.682,1.682,0,0,1,2,14.82V8.66A1.682,1.682,0,0,1,3.68,6.98H14.32A1.682,1.682,0,0,1,16,8.66v6.16A1.682,1.682,0,0,1,14.32,16.5ZM3.68,8.1a.561.561,0,0,0-.56.56v6.16a.561.561,0,0,0,.56.56H14.32a.561.561,0,0,0,.56-.56V8.66a.561.561,0,0,0-.56-.56ZM4.8,2.5h8.4a.56.56,0,1,1,0,1.12H4.8a.56.56,0,0,1,0-1.12ZM3.68,4.74H14.32a.56.56,0,0,1,0,1.12H3.68a.56.56,0,1,1,0-1.12Z" transform="translate(-2 -2.5)" fill="#515867"/>
</svg>
