<svg xmlns="http://www.w3.org/2000/svg" width="12.807" height="12.189" viewBox="0 0 12.807 12.189">
  <path id="send-mail" d="M13.084,9.318a.61.61,0,0,0-.61.61v2.439a.61.61,0,0,1-.61.61H3.329a.61.61,0,0,1-.61-.61V6.52L6.3,10.111a1.829,1.829,0,0,0,2.585,0l1-1a.612.612,0,1,0-.866-.866l-1,1a.61.61,0,0,1-.854,0L3.579,5.66H7.6a.61.61,0,1,0,0-1.219H3.329A1.829,1.829,0,0,0,1.5,6.27v6.1A1.829,1.829,0,0,0,3.329,14.2h8.535a1.829,1.829,0,0,0,1.829-1.829V9.928A.61.61,0,0,0,13.084,9.318Zm1.043-5.31L12.3,2.179a.63.63,0,0,0-.866,0L9.6,4.008a.612.612,0,1,0,.866.866l.786-.793V7.489a.61.61,0,1,0,1.219,0V4.081l.786.793a.612.612,0,1,0,.866-.866Z" transform="translate(-1.5 -2.006)" fill="#15dd95"/>
</svg>
