<svg xmlns="http://www.w3.org/2000/svg" width="18.001" height="18" viewBox="0 0 18.001 18">
  <g id="Group_71765" data-name="Group 71765" transform="translate(20714.998 8620)">
    <path id="Rectangle_27994" data-name="Rectangle 27994" d="M-6.364-8h4.909A1.638,1.638,0,0,1,.182-6.364v4.909A1.638,1.638,0,0,1-1.455.182H-6.364A1.638,1.638,0,0,1-8-1.455V-6.364A1.638,1.638,0,0,1-6.364-8Zm4.909,6.545V-6.364h-4.91v4.909Z" transform="translate(-20706.998 -8612)" fill="#FFFFFF"/>
    <path id="Rectangle_27995" data-name="Rectangle 27995" d="M-6.364-8h4.909A1.638,1.638,0,0,1,.182-6.364v4.909A1.638,1.638,0,0,1-1.455.182H-6.364A1.638,1.638,0,0,1-8-1.455V-6.364A1.638,1.638,0,0,1-6.364-8Zm4.909,6.545V-6.364h-4.91v4.909Z" transform="translate(-20706.998 -8602.182)" fill="#FFFFFF"/>
    <path id="Rectangle_27996" data-name="Rectangle 27996" d="M-6.364-8h4.909A1.638,1.638,0,0,1,.182-6.364v4.909A1.638,1.638,0,0,1-1.455.182H-6.364A1.638,1.638,0,0,1-8-1.455V-6.364A1.638,1.638,0,0,1-6.364-8Zm4.909,6.545V-6.364h-4.91v4.909Z" transform="translate(-20697.18 -8612)" fill="#FFFFFF"/>
    <path id="Line_1" data-name="Line 1" d="M-7.182-3.091A.818.818,0,0,1-8-3.909V-7.182A.818.818,0,0,1-7.182-8a.818.818,0,0,1,.818.818v3.273A.818.818,0,0,1-7.182-3.091Z" transform="translate(-20697.18 -8602.182)" fill="#FFFFFF"/>
    <path id="Path_89513" data-name="Path 89513" d="M140.093,144.182H136.82a.818.818,0,1,1,0-1.636h2.455v-5.727a.818.818,0,1,1,1.636,0v6.545A.818.818,0,0,1,140.093,144.182Z" transform="translate(-20841.182 -8746.182)" fill="#FFFFFF"/>
    <path id="Line_2" data-name="Line 2" d="M-3.909-6.364H-7.182A.818.818,0,0,1-8-7.182.818.818,0,0,1-7.182-8h3.273a.818.818,0,0,1,.818.818A.818.818,0,0,1-3.909-6.364Z" transform="translate(-20693.906 -8600.546)" fill="#FFFFFF"/>
    <path id="Line_3" data-name="Line 3" d="M-7.182-4.727A.818.818,0,0,1-8-5.545V-7.182A.818.818,0,0,1-7.182-8a.818.818,0,0,1,.818.818v1.636A.818.818,0,0,1-7.182-4.727Z" transform="translate(-20690.635 -8597.272)" fill="#FFFFFF"/>
  </g>
</svg>
