<svg xmlns="http://www.w3.org/2000/svg" width="29" height="29" viewBox="0 0 29 29">
  <g id="Group_69986" data-name="Group 69986" transform="translate(4080 22671)">
    <g id="Group_69985" data-name="Group 69985">
      <circle id="Ellipse_9303" data-name="Ellipse 9303" cx="14.5" cy="14.5" r="14.5" transform="translate(-4080 -22671)" fill="#BBF7D0"/>
      <path id="Path_88938" data-name="Path 88938" d="M16.62,14.635l-1.058-1.058v-4.1a5,5,0,0,0-3.692-5.186V3.731a1.231,1.231,0,1,0-2.462,0v.558A4.985,4.985,0,0,0,5.715,9.474v4.1L4.657,14.635a.821.821,0,0,0,.574,1.4H16.037a.821.821,0,0,0,.583-1.4Zm-2.7-.238H7.356V9.474c0-2.035,1.239-3.692,3.282-3.692S13.92,7.439,13.92,9.474Zm-3.282,4.1a1.646,1.646,0,0,0,1.641-1.641H9A1.641,1.641,0,0,0,10.638,18.5Z" transform="translate(-4076.203 -22667.5)" fill="#15DD95"/>
    </g>
  </g>
</svg>
