<svg xmlns="http://www.w3.org/2000/svg" width="23.752" height="15.964" viewBox="0 0 23.752 15.964"><g transform="translate(-1.59 -5)"><path d="M13.46,5C8.534,5,4.338,8.8,1.989,12.355l-.4.627.41.627c2.338,3.558,6.534,7.355,11.46,7.355s9.122-3.8,11.471-7.355l.41-.627-.41-.627C22.582,8.8,18.386,5,13.46,5Zm0,13.683c-3.74,0-7.081-2.839-9.122-5.7,2.052-2.862,5.393-5.7,9.122-5.7s7.081,2.839,9.122,5.7C20.541,15.844,17.2,18.683,13.46,18.683Z" fill="#00d297"/><path d="M12.561,8a4.561,4.561,0,1,0,4.561,4.561A4.561,4.561,0,0,0,12.561,8Zm0,6.842a2.281,2.281,0,1,1,2.281-2.281A2.281,2.281,0,0,1,12.561,14.842Z" transform="translate(0.899 0.421)" fill="#00d297"/></g></svg>