<svg xmlns="http://www.w3.org/2000/svg" width="29" height="29" viewBox="0 0 29 29">
  <g id="Group_69786" data-name="Group 69786" transform="translate(-4333 -9720)">
    <circle id="Ellipse_9304" data-name="Ellipse 9304" cx="14.5" cy="14.5" r="14.5" transform="translate(4333 9720)" fill="#bfffe9"/>
    <path id="document" d="M7.968,8.349h.794a.794.794,0,0,0,0-1.587H7.968a.794.794,0,0,0,0,1.587Zm0,1.587a.794.794,0,0,0,0,1.587H12.73a.794.794,0,0,0,0-1.587ZM16.7,7.508a1.04,1.04,0,0,0-.048-.214V7.222A.849.849,0,0,0,16.5,7h0L11.738,2.238h0a.849.849,0,0,0-.222-.151.254.254,0,0,0-.071,0A.7.7,0,0,0,11.182,2h-4.8A2.381,2.381,0,0,0,4,4.381V15.492a2.381,2.381,0,0,0,2.381,2.381h7.936A2.381,2.381,0,0,0,16.7,15.492V7.508Zm-4.762-2.8,2.056,2.056H12.73a.794.794,0,0,1-.794-.794Zm3.175,10.786a.794.794,0,0,1-.794.794H6.381a.794.794,0,0,1-.794-.794V4.381a.794.794,0,0,1,.794-.794h3.968V5.968A2.381,2.381,0,0,0,12.73,8.349h2.381ZM12.73,13.111H7.968a.794.794,0,1,0,0,1.587H12.73a.794.794,0,1,0,0-1.587Z" transform="translate(4337.086 9724.063)" fill="#15dd95"/>
  </g>
</svg>
