<svg xmlns="http://www.w3.org/2000/svg" width="29" height="29" viewBox="0 0 29 29">
  <g id="Group_69787" data-name="Group 69787" transform="translate(-4333 -9773)">
    <circle id="Ellipse_1523" data-name="Ellipse 1523" cx="14.5" cy="14.5" r="14.5" transform="translate(4333 9773)" fill="#bfffe9"/>
    <path id="link" d="M8.685,10.8,6.137,13.346a1.655,1.655,0,0,1-2.3,0,1.623,1.623,0,0,1,0-2.3L6.386,8.5a.66.66,0,0,0-.933-.933L2.9,10.121a2.943,2.943,0,0,0,4.158,4.158L9.618,11.73a.66.66,0,1,0-.933-.933Zm5.636-7.935a2.949,2.949,0,0,0-4.158,0L7.608,5.411a.66.66,0,0,0,.933.933L11.09,3.795a1.655,1.655,0,0,1,2.3,0,1.623,1.623,0,0,1,0,2.3L10.84,8.643a.66.66,0,1,0,.933.933L14.322,7.02a2.949,2.949,0,0,0,0-4.158ZM6.531,10.653a.666.666,0,0,0,.933,0L10.7,7.421a.66.66,0,0,0-.933-.933L6.531,9.72a.657.657,0,0,0,0,.933Z" transform="translate(4337.571 9778.996)" fill="#15dd95"/>
  </g>
</svg>
