<svg xmlns="http://www.w3.org/2000/svg" width="18" height="16.004" viewBox="0 0 18 16.004">
  <path id="shuffle-2" d="M18.71,14.29a1,1,0,0,0-1.42,1.42l.29.29H16a4,4,0,0,1,0-8h1.59l-.3.29a1,1,0,0,0,1.42,1.42l2-2a1.014,1.014,0,0,0,0-1.42l-2-2a1,1,0,0,0-1.42,1.42l.29.29H16a6,6,0,0,0-5,2.69A6,6,0,0,0,6,6H4A1,1,0,0,0,4,8H6a4,4,0,0,1,0,8H4a1,1,0,1,0,0,2H6a6,6,0,0,0,5-2.69A6,6,0,0,0,16,18h1.59l-.3.29a1,1,0,0,0,1.42,1.42l2-2a1.014,1.014,0,0,0,0-1.42Z" transform="translate(-3 -3.996)" fill="#515867"/>
</svg>
