<svg xmlns="http://www.w3.org/2000/svg" width="18" height="17.928" viewBox="0 0 18 17.928"><path d="M11.313,1.976a3.143,3.143,0,0,1,4.445,4.445l-.349.349.11.11a2.572,2.572,0,0,1,0,3.637l-1.851,1.851a.643.643,0,1,1-.909-.909L14.61,9.608a1.286,1.286,0,0,0,0-1.818l-.11-.11-7.26,7.26a.642.642,0,0,1-.3.169L1.8,16.393a.643.643,0,0,1-.766-.827L2.64,10.745a.643.643,0,0,1,.155-.251Zm3.536.909a1.857,1.857,0,0,0-2.627,0L3.812,11.3,2.623,14.862,6.457,13.9l8.392-8.392A1.857,1.857,0,0,0,14.849,2.885ZM6.1,18.984a5.745,5.745,0,0,1-3.671-1.423l1.652-.413A4.1,4.1,0,0,0,6.1,17.7a3.024,3.024,0,0,0,1.632-.587A13.172,13.172,0,0,0,9.421,15.7l.146-.137a13.336,13.336,0,0,1,1.5-1.282,2.107,2.107,0,0,1,1.95-.4,1.91,1.91,0,0,1,1.017.947,6.766,6.766,0,0,1,.489,1.42,1.859,1.859,0,0,0,.294.641.594.594,0,0,0,.148.144.1.1,0,0,0,.05.02,1.732,1.732,0,0,0,.81-.368c.238-.162.442-.325.646-.487.126-.1.253-.2.388-.3a6.111,6.111,0,0,1,.9-.564c.114-.058.207-.1.275-.127l.082-.033.026-.009.009,0h.005s0,0,.205.609l-.2-.61a.643.643,0,0,1,.412,1.218l-.005,0-.04.016c-.039.016-.1.044-.185.086a4.84,4.84,0,0,0-.707.446c-.075.056-.174.134-.286.224-.233.185-.526.417-.794.6a2.881,2.881,0,0,1-1.533.59,1.553,1.553,0,0,1-1.216-.664,3.13,3.13,0,0,1-.521-1.1,5.655,5.655,0,0,0-.381-1.143.637.637,0,0,0-.341-.347c-.105-.04-.315-.043-.766.263a12.462,12.462,0,0,0-1.36,1.173l-.128.121a14.351,14.351,0,0,1-1.863,1.545A4.286,4.286,0,0,1,6.1,18.984Z" transform="translate(-1 -1.055)" fill="#15dd95"/></svg>