<svg xmlns="http://www.w3.org/2000/svg" width="14.58" height="19" viewBox="0 0 14.58 19">
  <g id="sent-message" transform="translate(-7.061 0.5)">
    <path id="Path_68957" data-name="Path 68957" d="M20.99,20.464h1.5a.284.284,0,0,0,0-.567h-1.5a.284.284,0,0,0,0,.567ZM22.942,4.22H20.534a.284.284,0,1,0,0,.567h2.409a.284.284,0,1,0,0-.567Z" transform="translate(-9.334 -3.34)" fill="#002c78"/>
    <path id="Path_68957_-_Outline" data-name="Path 68957 - Outline" d="M22.135,20.256h-1.5a.43.43,0,1,1,0-.859h1.5a.43.43,0,0,1,0,.859Zm-1.5-.567a.137.137,0,1,0,0,.275h1.5a.137.137,0,1,0,0-.275ZM22.588,4.579H20.18a.43.43,0,0,1,0-.859h2.409a.43.43,0,1,1,0,.859ZM20.18,4.012a.137.137,0,0,0,0,.275h2.409a.137.137,0,0,0,0-.275Z" transform="translate(-8.981 -2.986)" fill="#002c78"/>
    <path id="Path_68958" data-name="Path 68958" d="M20.7,5.414H17.96V2.751h0V.947A.951.951,0,0,0,17.013,0H8.5A.946.946,0,0,0,7.56.947V17.764a.946.946,0,0,0,.944.944h8.509a.946.946,0,0,0,.944-.944v-1.8h0V12.1h.219L19.5,13.233a.284.284,0,0,0,.468-.216V12.1h.725a1.155,1.155,0,0,0,1.155-1.155V6.568A1.155,1.155,0,0,0,20.7,5.414ZM8.127.947A.379.379,0,0,1,8.5.567h8.509a.379.379,0,0,1,.377.38v1.52H8.127ZM17.39,17.764a.378.378,0,0,1-.377.377H8.5a.378.378,0,0,1-.377-.377v-1.52H17.39Zm0-2.087H8.127V3.034H17.39V5.414H13.318a1.155,1.155,0,0,0-1.155,1.155v4.379A1.155,1.155,0,0,0,13.318,12.1h4.075v3.575Zm3.891-4.73a.588.588,0,0,1-.588.588H19.685a.282.282,0,0,0-.284.284V12.4l-.935-.8a.286.286,0,0,0-.184-.067H13.316a.588.588,0,0,1-.588-.588V6.568a.588.588,0,0,1,.588-.588H20.7a.588.588,0,0,1,.588.588v4.379Z" transform="translate(-0.354 -0.354)" fill="#002c78"/>
    <path id="Path_68958_-_Outline" data-name="Path 68958 - Outline" d="M8.15-.5h8.509A1.1,1.1,0,0,1,17.753.592V4.914h2.59a1.3,1.3,0,0,1,1.3,1.3V10.6a1.3,1.3,0,0,1-1.3,1.3h-.579v.766a.43.43,0,0,1-.707.329h0L17.769,11.9H17.75V17.41a1.092,1.092,0,0,1-1.09,1.09H8.15a1.092,1.092,0,0,1-1.09-1.09V.593A1.093,1.093,0,0,1,8.15-.5ZM20.34,11.6A1.01,1.01,0,0,0,21.348,10.6V6.214a1.008,1.008,0,0,0-1.006-1.008H17.46V.593a.805.805,0,0,0-.8-.8H8.15a.8.8,0,0,0-.8.8V17.41a.8.8,0,0,0,.8.8h8.509a.8.8,0,0,0,.8-.8V11.6h.419l1.365,1.163a.14.14,0,0,0,.149.02.137.137,0,0,0,.079-.125V11.6ZM8.15.067h8.509a.525.525,0,0,1,.523.526V2.259H7.627V.593A.525.525,0,0,1,8.15.067Zm8.74,1.9V.593a.233.233,0,0,0-.231-.234H8.15a.233.233,0,0,0-.231.234V1.967Zm-9.263.567h9.556V5.206H12.965a1.01,1.01,0,0,0-1.008,1.008v4.379A1.01,1.01,0,0,0,12.965,11.6h4.221v3.867H7.627Zm9.263.292H7.919v12.35h8.974V11.894H12.965a1.3,1.3,0,0,1-1.3-1.3V6.214a1.3,1.3,0,0,1,1.3-1.3H16.89ZM12.962,5.481h7.381a.735.735,0,0,1,.734.734v4.525h-.018a.735.735,0,0,1-.719.588H19.331a.136.136,0,0,0-.137.137v.9l-1.176-1a.14.14,0,0,0-.09-.033H12.962a.735.735,0,0,1-.734-.734V6.214A.735.735,0,0,1,12.962,5.481Zm7.822,4.966V6.214a.442.442,0,0,0-.441-.441H12.962a.442.442,0,0,0-.441.441v4.379a.442.442,0,0,0,.441.441h4.966a.435.435,0,0,1,.278.1h0l.694.592v-.265a.43.43,0,0,1,.43-.43H20.34a.442.442,0,0,0,.441-.441v-.146Zm-13.157,5.3h9.556V17.41a.524.524,0,0,1-.523.523H8.15a.524.524,0,0,1-.523-.523Zm9.263.292H7.919V17.41a.231.231,0,0,0,.231.231h8.509a.231.231,0,0,0,.231-.231Z" fill="#002c78"/>
    <path id="Path_68959" data-name="Path 68959" d="M35.075,23.47a1.985,1.985,0,1,0,1.985,1.985A1.989,1.989,0,0,0,35.075,23.47Zm0,3.4a1.418,1.418,0,1,1,1.418-1.418A1.421,1.421,0,0,1,35.075,26.872Z" transform="translate(-18.421 -16.963)" fill="#002c78"/>
    <path id="Path_68959_-_Outline" data-name="Path 68959 - Outline" d="M34.721,22.97A2.131,2.131,0,1,1,32.59,25.1,2.137,2.137,0,0,1,34.721,22.97Zm0,3.97A1.839,1.839,0,1,0,32.882,25.1,1.841,1.841,0,0,0,34.721,26.94Zm0-3.4A1.564,1.564,0,1,1,33.157,25.1,1.566,1.566,0,0,1,34.721,23.537Zm0,2.835A1.272,1.272,0,1,0,33.449,25.1,1.277,1.277,0,0,0,34.721,26.372Z" transform="translate(-18.067 -16.61)" fill="#002c78"/>
    <path id="Path_68960" data-name="Path 68960" d="M37.95,27.777l-.731.731-.33-.33a.283.283,0,1,0-.4.4l.529.529a.289.289,0,0,0,.4,0l.932-.932a.282.282,0,0,0,0-.4A.289.289,0,0,0,37.95,27.777Z" transform="translate(-20.767 -19.952)" fill="#002c78"/>
    <path id="Path_68960_-_Outline" data-name="Path 68960 - Outline" d="M37.8,27.194h0a.437.437,0,0,1,.3.121l0,0a.43.43,0,0,1,0,.607l-.932.932a.436.436,0,0,1-.61,0l-.529-.529a.429.429,0,1,1,.607-.607l.227.227.627-.627A.429.429,0,0,1,37.8,27.194Zm.1.332a.146.146,0,0,0-.1-.039h0a.139.139,0,0,0-.1.041l-.834.834-.434-.434a.137.137,0,1,0-.194.194l.529.529a.143.143,0,0,0,.2,0l.932-.932A.136.136,0,0,0,37.9,27.525Z" transform="translate(-20.415 -19.599)" fill="#002c78"/>
  </g>
</svg>
