<svg xmlns="http://www.w3.org/2000/svg" width="45" height="45" viewBox="0 0 45 45">
  <g id="Group_69862" data-name="Group 69862" transform="translate(-1774 -1206)">
    <g id="Group_69645" data-name="Group 69645" transform="translate(86 209)">
      <g id="Rectangle_27091" data-name="Rectangle 27091" transform="translate(1688 997)" fill="none" stroke="#d6d7d8" stroke-width="0.5">
        <rect width="45" height="45" rx="5" stroke="none"/>
        <rect x="0.25" y="0.25" width="44.5" height="44.5" rx="4.75" fill="none"/>
      </g>
      <path id="chat" d="M14.468,13.292a5.441,5.441,0,0,0-1.132-7.642,9.846,9.846,0,0,0-1.019-.623A6.23,6.23,0,1,0,1.279,9.9L.2,10.972A.86.86,0,0,0,.2,12.1a.627.627,0,0,0,.566.283H5.185A5.526,5.526,0,0,0,10.109,15.5h4.642a.774.774,0,0,0,.792-.792.727.727,0,0,0-.226-.566ZM4.675,10.066a3.737,3.737,0,0,0,.057.792H2.637l.283-.283a.787.787,0,0,0,0-1.076h0A4.443,4.443,0,0,1,1.562,6.217,4.626,4.626,0,0,1,6.2,1.575a4.7,4.7,0,0,1,4.415,3.113h-.509A5.352,5.352,0,0,0,4.675,10.066Zm8.151,3.906h0l-2.774.057a3.906,3.906,0,1,1,3.906-3.906,3.718,3.718,0,0,1-1.132,2.717.86.86,0,0,0,0,1.132Z" transform="translate(1702.75 1011.826)" fill="#515867"/>
    </g>
  </g>
</svg>
