<svg xmlns="http://www.w3.org/2000/svg" width="17.049" height="18" viewBox="0 0 17.049 18"><path d="M14.1,5.719a.947.947,0,0,0,1.288-.351.949.949,0,1,1,.824,1.421.947.947,0,1,0,0,1.895,2.842,2.842,0,1,0-2.463-4.263.947.947,0,0,0,.351,1.3Zm4.074,6.755a.947.947,0,0,0-1.061.815,6.631,6.631,0,0,1-6.584,5.817h-5.3l.616-.616a.947.947,0,0,0,0-1.336,6.631,6.631,0,0,1,4.68-11.311.947.947,0,1,0,0-1.895A8.526,8.526,0,0,0,3.895,17.788L2.275,19.38A.953.953,0,0,0,2.947,21h7.579a8.526,8.526,0,0,0,8.46-7.457.947.947,0,0,0-.815-1.069ZM16.57,9.7a.947.947,0,0,0-.549-.066l-.171.057-.171.085-.142.123a.947.947,0,0,0-.2.3.8.8,0,0,0-.076.379.947.947,0,1,0,1.895,0,.8.8,0,0,0-.076-.36,1.014,1.014,0,0,0-.512-.512Z" transform="translate(-2.002 -3)" fill="#15dd95"/></svg>