<svg xmlns="http://www.w3.org/2000/svg" width="11" height="12.22" viewBox="0 0 11 12.22">
  <path id="switch_horizontal" data-name="switch horizontal" d="M5.618,7.928a.613.613,0,1,0,.867-.867l-1.4-1.4h8.3a.611.611,0,1,0,0-1.221H5.08l1.4-1.4a.613.613,0,0,0-.867-.867L3.175,4.618a.611.611,0,0,0,0,.867Zm5.753.354a.613.613,0,1,0-.867.867l1.4,1.4h-8.3a.611.611,0,0,0,0,1.221h8.3l-1.4,1.4a.613.613,0,1,0,.867.867l2.443-2.443a.611.611,0,0,0,0-.867Z" transform="translate(-2.994 -1.996)" fill="#515867"/>
</svg>
