<svg xmlns="http://www.w3.org/2000/svg" width="12.857" height="12.779" viewBox="0 0 12.857 12.779">
  <path id="menu" d="M6.776,3.027H5.341A2.361,2.361,0,0,0,2.98,5.388V6.737A2.361,2.361,0,0,0,5.341,9.1H6.776A2.361,2.361,0,0,0,9.137,6.737V5.388A2.361,2.361,0,0,0,6.776,3.027Zm1.686,3.71A1.686,1.686,0,0,1,6.776,8.424H5.341A1.686,1.686,0,0,1,3.655,6.737V5.388A1.686,1.686,0,0,1,5.341,3.7H6.776A1.686,1.686,0,0,1,8.462,5.388Zm-2.361,3H6.016a3.036,3.036,0,1,0,0,6.071H6.1a3.036,3.036,0,1,0,0-6.071ZM12.7,9.1h.1a3.036,3.036,0,0,0,0-6.071h-.1a3.036,3.036,0,1,0,0,6.071Zm0-5.4h.1a2.361,2.361,0,0,1,0,4.722h-.1a2.361,2.361,0,1,1,0-4.722Zm.774,6.035H12.028A2.361,2.361,0,0,0,9.667,12.1v1.349a2.361,2.361,0,0,0,2.361,2.361h1.449a2.361,2.361,0,0,0,2.361-2.361V12.1A2.361,2.361,0,0,0,13.477,9.736Zm1.686,3.71a1.686,1.686,0,0,1-1.686,1.686H12.028a1.686,1.686,0,0,1-1.686-1.686V12.1a1.686,1.686,0,0,1,1.686-1.686h1.449A1.686,1.686,0,0,1,15.163,12.1Z" transform="translate(-2.98 -3.027)" fill="#515867"/>
</svg>
