<svg xmlns="http://www.w3.org/2000/svg" width="18.003" height="18.004" viewBox="0 0 18.003 18.004"><path d="M14529,20310a4.005,4.005,0,0,1-4-4v-10a4.005,4.005,0,0,1,4-4h10a4.005,4.005,0,0,1,4,4v10a4.005,4.005,0,0,1-4,4Zm-2.5-14v10a2.5,2.5,0,0,0,2.5,2.5h10a2.5,2.5,0,0,0,2.5-2.5v-10a2.5,2.5,0,0,0-2.5-2.5h-10A2.5,2.5,0,0,0,14526.5,20296Zm3.027,6.34,1.192-1.191,2.386,2.385,4.17-4.174,1.192,1.191-5.362,5.363Zm0-3.277,1.192-1.191,2.386,2.385,4.17-4.174,1.192,1.191-5.362,5.363Z" transform="translate(-14524.998 -20291.998)" fill="#515867"/></svg>