<svg xmlns="http://www.w3.org/2000/svg" width="17.831" height="17.831" viewBox="0 0 17.831 17.831"><path d="M132.915,2007.916a3.566,3.566,0,1,1,3.583-3.566,3.578,3.578,0,0,1-3.583,3.566m3.366.6a5.33,5.33,0,0,0,1.946-5,5.378,5.378,0,0,0-10.687.829,5.326,5.326,0,0,0,2.008,4.166,8.5,8.5,0,0,0-5.545,7.327.9.9,0,0,0,.895.989.883.883,0,0,0,.885-.794,7.181,7.181,0,0,1,14.263,0,.883.883,0,0,0,.885.794.9.9,0,0,0,.895-.989,8.5,8.5,0,0,0-5.545-7.327" transform="translate(-124 -1999)" fill="#515867" fill-rule="evenodd"/></svg>