<svg xmlns="http://www.w3.org/2000/svg" width="12.98" height="16.224" viewBox="0 0 12.98 16.224">
  <path id="vote" d="M7.629,8.571H4.541a.541.541,0,0,0,0,1.082H5.622V15.6a1.622,1.622,0,0,0,1.622,1.622h6.49A1.622,1.622,0,0,0,15.357,15.6V9.653h1.082a.541.541,0,0,0,0-1.082H13.35a4.327,4.327,0,1,0-5.721,0Zm6.646,1.082V15.6a.541.541,0,0,1-.541.541H7.245A.541.541,0,0,1,6.7,15.6V9.653ZM10.49,2.082A3.245,3.245,0,1,1,7.245,5.327,3.247,3.247,0,0,1,10.49,2.082Zm-1.6,3.673.811.811a.54.54,0,0,0,.765,0l1.622-1.622a.541.541,0,0,0-.765-.765l-1.24,1.24L9.655,4.99a.541.541,0,0,0-.765.765Z" transform="translate(-4 -1)" fill="#515867" fill-rule="evenodd"/>
</svg>
